<?xml version="1.0" standalone="no"?>
<!DOCTYPE svg PUBLIC "-//W3C//DTD SVG 1.1//EN" "http://www.w3.org/Graphics/SVG/1.1/DTD/svg11.dtd" >
<!--
2013-9-30: Created.
-->
<svg>
<metadata>
Created by iconfont
</metadata>
<defs>

<font id="iconfont" horiz-adv-x="1024" >
  <font-face
    font-family="iconfont"
    font-weight="500"
    font-stretch="normal"
    units-per-em="1024"
    ascent="896"
    descent="-128"
  />
    <missing-glyph />
    
    <glyph glyph-name="x" unicode="x" horiz-adv-x="1001"
d="M281 543q-27 -1 -53 -1h-83q-18 0 -36.5 -6t-32.5 -18.5t-23 -32t-9 -45.5v-76h912v41q0 16 -0.5 30t-0.5 18q0 13 -5 29t-17 29.5t-31.5 22.5t-49.5 9h-133v-97h-438v97zM955 310v-52q0 -23 0.5 -52t0.5 -58t-10.5 -47.5t-26 -30t-33 -16t-31.5 -4.5q-14 -1 -29.5 -0.5
t-29.5 0.5h-32l-45 128h-439l-44 -128h-29h-34q-20 0 -45 1q-25 0 -41 9.5t-25.5 23t-13.5 29.5t-4 30v167h911zM163 247q-12 0 -21 -8.5t-9 -21.5t9 -21.5t21 -8.5q13 0 22 8.5t9 21.5t-9 21.5t-22 8.5zM316 123q-8 -26 -14 -48q-5 -19 -10.5 -37t-7.5 -25t-3 -15t1 -14.5
t9.5 -10.5t21.5 -4h37h67h81h80h64h36q23 0 34 12t2 38q-5 13 -9.5 30.5t-9.5 34.5q-5 19 -11 39h-368zM336 498v228q0 11 2.5 23t10 21.5t20.5 15.5t34 6h188q31 0 51.5 -14.5t20.5 -52.5v-227h-327z" />
    

    
    <glyph glyph-name="naiping" unicode="&#983200;" d="M512.984615 896q15.753846 0 21.661538-6.4t6.892308-12.307692q0.984615-10.830769-1.969231-15.753846t0-14.769231q1.969231-4.923077 6.4-11.323077t17.230769-10.338462q13.784615-3.938462 30.030769-11.815385t30.030769-26.584615q3.938462-5.907692 7.384615-13.784615t5.415385-15.753846q2.953846-8.861538 3.938462-16.738462l-254.030769 0q0.984615 6.892308 2.953846 13.784615 1.969231 5.907692 3.938462 12.8t6.892308 14.769231q7.876923 13.784615 24.615385 25.6t33.476923 16.738462 19.2 8.369231 7.384615 9.353846q3.938462 4.923077 2.953846 13.292308t-2.953846 16.246154q-2.953846 12.8 7.384615 18.707692t21.169231 5.907692zM688.246154 660.676923q0-42.338462-42.338462-42.338462l-265.846154 0q-42.338462 0-42.338462 42.338462 0 19.692308 12.307692 30.523077t30.030769 10.830769l265.846154 0q21.661538 0 32-12.307692t10.338462-29.046154zM561.230769 576.984615q29.538462 0 55.630769-3.938462t45.292308-15.753846 30.523077-33.476923 11.323077-56.123077l0-391.876923q0-26.584615-5.415385-42.830769t-16.738462-25.107692-28.061538-11.815385-39.384615-2.953846l-45.292308 0-46.276923 0q-23.630769 0-50.215385-0.492308t-59.076923-0.492308-50.707692 6.4-27.569231 18.707692-11.323077 29.538462-1.969231 39.876923l0 354.461538q0 33.476923 2.461538 50.707692t9.353846 33.969231q6.892308 17.723077 25.107692 27.569231t38.892308 15.261538 38.4 6.892308 24.615385 1.476923l52.184615 0 11.815385 0q5.907692 0 14.769231-0.492308t21.661538 0.492308zM457.846154 425.353846q0 13.784615-9.846154 23.630769t-23.630769 9.846154-23.630769-9.846154-9.846154-23.630769l0-281.6q0-13.784615 9.846154-23.630769t23.630769-9.846154 23.630769 9.846154 9.846154 23.630769l0 281.6z"  horiz-adv-x="1024" />

    
    <glyph glyph-name="smiley36" unicode="&#58888;" d="M874.23309 662.173326C674.491548 861.934178 349.506036 861.934178 149.803114 662.221601-49.928773 462.509024-49.909463 137.523512 149.822424-62.227685c199.683612-199.702922 524.669125-199.702922 724.391356 0.03862C1073.926357 137.523512 1073.907047 462.489715 874.23309 662.173326zM818.340602-6.335197c-168.903641-168.903641-443.751015-168.922951-612.664311-0.01931-168.942261 168.932606-168.922951 443.799289 0 612.702931C374.589588 775.24241 649.417651 775.26172 818.359912 606.329114 987.263553 437.425472 987.244244 162.558789 818.340602-6.335197zM320.937048 438.632341c0 33.058538 26.811788 59.870326 59.870326 59.870326 33.039228 0 59.851016-26.802133 59.851016-59.870326 0-33.077848-26.811788-59.879981-59.851016-59.879981C347.748835 378.75236 320.937048 405.554493 320.937048 438.632341zM592.40519 438.632341c0 33.058538 26.831097 59.870326 59.889636 59.870326s59.870326-26.802133 59.870326-59.870326c0-33.077848-26.811788-59.879981-59.870326-59.879981S592.40519 405.554493 592.40519 438.632341zM733.946711 212.735548c-24.253227-56.046967-69.805266-99.001826-125.572239-122.154388l0-38.040491c0-51.122944-43.167268-92.561976-96.37568-92.561976-53.208412 0-96.35637 41.439032-96.35637 92.561976l0 37.963251c-56.606954 23.220147-102.284508 66.474309-125.736374 122.946094-6.150201 14.762414 0.868945 31.716501 15.631359 37.857047 3.639915 1.496517 7.395689 2.210983 11.103189 2.210983 11.354218 0 22.119483-6.710188 26.753858-17.861652 26.811788-64.552975 93.208857-106.243036 169.183635-106.243036 74.236887 0 140.257414 41.719026 168.189175 106.31062 6.352955 14.685174 23.403591 21.453292 38.079111 15.090682C733.531549 244.471358 740.299667 227.411067 733.946711 212.735548z"  horiz-adv-x="1024" />

    
    <glyph glyph-name="jinlingyingcaiwangtubiao21" unicode="&#59059;" d="M512.794 748.851c-254.080 0-460.774-206.694-460.774-460.774s206.694-460.774 460.774-460.774c254.106 0 460.826 206.694 460.826 460.774s-206.72 460.774-460.826 460.774zM245.325 340.531c-10.598 0-19.2 8.602-19.2 19.2 0 67.891 48.614 123.136 108.365 123.136s108.39-55.245 108.39-123.136c0-10.598-8.602-19.2-19.2-19.2s-19.2 8.602-19.2 19.2c0 46.72-31.411 84.736-69.99 84.736s-69.965-38.016-69.965-84.736c0-10.598-8.602-19.2-19.2-19.2zM743.475 158.336c-34.765-97.024-127.411-162.202-230.528-162.202-103.526 0-196.275 65.536-230.835 163.098-3.533 10.010 1.69 20.966 11.699 24.525 10.035 3.533 20.992-1.69 24.525-11.699 29.107-82.253 107.341-137.523 194.637-137.523 86.938 0 165.069 54.963 194.381 136.755 3.584 10.010 14.541 15.181 24.55 11.597 9.958-3.584 15.155-14.566 11.571-24.55zM780.288 340.531c-10.598 0-19.2 8.602-19.2 19.2 0 46.72-31.386 84.736-69.965 84.736s-69.99-38.016-69.99-84.736c0-10.598-8.602-19.2-19.2-19.2s-19.2 8.602-19.2 19.2c0 67.891 48.614 123.136 108.39 123.136s108.365-55.245 108.365-123.136c0-10.598-8.576-19.2-19.2-19.2z"  horiz-adv-x="1024" />

    
    <glyph glyph-name="9kuai9" unicode="&#58895;" d="M832-148 128-148c-70.592 0-128 57.408-128 128L0 620c0 70.592 57.408 128 128 128l704 0c70.592 0 128-57.408 128-128l0-640C960-90.592 902.592-148 832-148zM128 684C92.736 684 64 655.264 64 620l0-640c0-35.328 28.736-64 64-64l704 0c35.328 0 64 28.672 64 64L896 620c0 35.264-28.672 64-64 64L128 684zM480 172C356.48 172 256 265.312 256 380L256 556l64 0 0-176C320 300.576 391.808 236 480 236S640 300.576 640 380L640 556l64 0 0-176C704 265.312 603.52 172 480 172z"  horiz-adv-x="1024" />

    
    <glyph glyph-name="jianguo" unicode="&#58893;" d="M443.894368 607.313178c11.858072 28.655643 23.715121 56.323796 35.571147 84.97944 10.870582 24.704658 27.668153 54.348816 55.337329 52.371788 9.882068-0.98749 18.775622-5.928013 26.683732-11.856026 13.831007-25.692149 146.241712-124.506688 191.700043-208.499661 12.845563-24.701588 24.701588-49.406247 30.631648-77.0744 4.940522-25.690102 4.940522-53.359278 3.952009-80.037894-6.919597-115.614158-33.598212-230.239801-80.041988-336.960405-29.643134-68.181869-123.515105-88.931448-156.124803-155.138336-6.918573-13.834076-23.716144-20.74958-38.537711-19.761066-14.824637 0.988514-29.645181 6.915503-43.479257 13.834076-59.289338 29.643134-117.589139 68.182892-153.162332 123.519198-9.882068 15.808034-18.775622 32.608675-26.680663 49.406247-35.573193 77.0744-58.300824 161.068396-53.360302 245.059322 1.976004 27.668153 5.929036 56.32482 16.798595 83.004459 13.834076 34.583656 36.561707 65.218374 54.347792 97.828073 18.774599 32.606629 32.608675 70.15685 27.668153 106.718557-1.976004 12.845563-5.928013 25.692149-5.928013 39.526225 0 12.845563 6.916527 27.668153 19.763113 31.620162 12.845563 3.952009 25.692149-4.940522 34.58468-15.810081 8.893554-9.882068 15.810081-22.726607 26.680663-29.644157C421.166737 594.466592 438.953845 595.455105 443.894368 607.313178M396.464125 539.130286c-23.716144 12.846586-15.810081-23.716144-21.739117-37.550221-17.787108-41.502229-87.944981-47.429219-99.803054-237.155305-2.964518-39.524179 4.940522-79.05245 15.810081-116.598578C314.44818 69.762245 355.949386-4.349683 419.190733-54.745467c27.669176-21.738094 68.181869-38.538735 95.851045-17.786085 13.8351 9.882068 20.74958 25.690102 26.679639 41.502229 12.845563 32.609699 44.465724 150.197814 47.429219 175.888939C599.033727 262.451826 547.6525 456.125827 396.464125 539.130286zM618.79684 614.229704c-8.892531-1.978051-8.892531-15.810081-4.940522-24.704658 14.82259-41.501206 21.738094-196.640566 27.668153-336.956312 4.940522-166.998455-30.631648-196.641589-46.443775-275.694039 69.171406 35.573193 141.30426 272.727475 143.282311 345.849866 6.916527 148.223856-61.265342 239.133356-104.742553 283.59908C629.667421 610.276672 624.726899 615.217195 618.79684 614.229704M598.048283 478.852434c4.937452 39.528272 3.950985 61.266365-5.930059 81.028455-9.882068 18.775622-20.75265 28.656667-28.65769 35.574217-9.882068 10.869558-29.643134 12.845563-41.503253 4.941546-11.858072-7.906064-21.739117-30.633694-27.669176-44.467771-0.988514-2.964518-2.963495-6.915503-2.963495-9.878998-0.988514-8.896624 3.952009-17.789155 9.883091-24.705682 19.762089-27.668153 40.514739-56.32482 60.278875-83.993996 5.925966-8.892531 20.748556-4.940522 25.690102 4.941546C592.118224 450.198837 597.058746 467.984922 598.048283 478.852434z"  horiz-adv-x="1024" />

    
    <glyph glyph-name="10" unicode="&#58901;" d="M723.738425 145.926926c-5.722328 0-10.819416 0.930185-15.618723 2.237971-35.268248-44.352137-83.747379-75.838246-139.733485-89.62832-20.361747-5.02034-41.197284-7.54893-61.96119-7.54893-33.393551 0-65.310472 6.776334-94.871741 18.520819-7.324826-6.16235-16.844643-10.17371-28.436656-11.253298-2.862187-1.932002-5.886057-3.677762-9.259898-5.046946 39.948851-20.751626 85.017302-32.609699 132.568295-32.609699 23.214724 0 46.50415 2.851954 69.243037 8.436136 71.266114 17.545608 131.571594 60.766992 171.553191 121.720226C740.517577 147.709525 732.700541 145.926926 723.738425 145.926926zM933.09971 390.095971c-14.419408 58.304917-92.328825 92.901877-202.596208 99.30982C677.18618 555.079536 596.028788 595.659767 506.842537 595.659767c-23.214724 0-46.51029-2.825348-69.249177-8.417717-74.726935-18.398022-137.801483-64.726164-177.601954-130.444934-17.433044-28.795836-29.485545-59.795874-35.978423-91.808986-94.77248-56.908104-147.552567-123.830283-133.11474-182.187389 24.299429-98.231255 228.29552-129.646755 464.423425-71.519894C791.463899 169.3985 957.398116 291.899508 933.09971 390.095971zM226.871077 239.278033c3.142573-12.710486 7.312546-24.911366 12.009522-36.778648 7.489578 4.213975 16.392342 6.933923 27.107381 6.933923 1.033539 0 1.902326-0.24457 2.90619-0.271176-4.999874 11.980869-9.274224 24.419156-12.476149 37.383422-16.489556 66.674539-5.966898 135.755894 29.626761 194.530508 35.601846 58.802244 92.0116 100.215446 158.846798 116.67328 20.352537 5.02034 41.197284 7.55814 61.951981 7.55814 118.718869 0 221.517139-80.421634 250.008031-195.576327 4.089132-16.536628 6.510274-33.206286 7.29822-49.847292 7.445576 6.670933 17.238616 11.129478 29.366841 12.298094-1.293459 14.97404-3.432169 29.966499-7.119141 44.845371-3.692089 14.921851-8.513908 29.314653-14.337543 43.113937 32.532951-8.882298 52.900837-22.689768 57.139372-39.824007 12.247952-49.513694-105.890702-137.142473-294.980291-183.662996-189.104939-46.557362-334.529029-23.848151-346.775958 25.665543-4.256954 17.188474 7.264451 38.974663 31.978319 62.044078C220.706681 269.301837 223.169779 254.2357 226.871077 239.278033zM548.039821 140.783789c-234.218416-57.668421-410.185126-21.066805-427.588495 49.250704-9.378601 37.919634 26.656103 88.494497 98.470709 136.131447-0.056282-0.911766-0.12689-1.822508-0.174985-2.735297-48.093345-38.308491-68.555375-77.261665-60.858066-108.360963 16.087397-65.043389 156.0061-103.954607 383.627261-47.917336 227.596602 56.036247 333.324598 155.382906 317.229015 220.432435-7.673773 31.05939-43.916209 55.921637-104.275925 67.433832-0.500397 0.843204-1.014096 1.677199-1.52268 2.515287 85.732593-8.79941 141.237745-36.805254 150.60816-74.68805C920.958182 312.484336 782.251074 198.434813 548.039821 140.783789zM133.775796 573.830599c33.565467 0 60.875462-27.229155 60.875462-60.7322 0-8.374738 6.814196-15.159258 15.219633-15.159258 8.402367 0 15.217586 6.78452 15.217586 15.159258 0 33.503045 27.307949 60.7322 60.875462 60.7322 8.404414 0 15.217586 6.80294 15.217586 15.19405 0 8.373715-6.813173 15.176654-15.217586 15.176654-33.567513 0-60.875462 27.237341-60.875462 60.7322 0 8.373715-6.815219 15.168468-15.217586 15.168468-8.404414 0-15.219633-6.794753-15.219633-15.168468 0-33.494858-27.308973-60.7322-60.875462-60.7322-8.404414 0-15.21861-6.80294-15.21861-15.176654C118.557186 580.633538 125.370359 573.830599 133.775796 573.830599zM209.868845 614.628794c6.759961-10.146081 15.501042-18.86772 25.669636-25.612331-10.168594-6.744611-18.909675-15.465227-25.669636-25.610284-6.759961 10.146081-15.501042 18.866696-25.669636 25.610284C194.367803 595.761074 203.108884 604.482713 209.868845 614.628794zM864.274182 50.048251c-29.367865 0-53.267181 23.839965-53.267181 53.139268 0 8.40953-6.80601 15.167444-15.217586 15.167444-8.411577 0-15.217586-6.758937-15.217586-15.167444 0-29.299303-23.898293-53.139268-53.265134-53.139268-8.413624 0-15.219633-6.794753-15.219633-15.167444 0-8.391111 6.807033-15.21247 15.219633-15.21247 29.366841 0 53.265134-23.804149 53.265134-53.121871 0-8.365528 6.80601-15.176654 15.217586-15.176654 8.411577 0 15.217586 6.811126 15.217586 15.176654 0 29.317723 23.899316 53.121871 53.267181 53.121871 8.410554 0 15.217586 6.820336 15.217586 15.21247C879.491769 43.254521 872.683712 50.048251 864.274182 50.048251zM795.789415 14.462778c-5.585205 7.92039-12.509918 14.82873-20.448728 20.400632 7.938809 5.575995 14.863523 12.487406 20.448728 20.409842 5.585205-7.922437 12.509918-14.833847 20.448728-20.409842C808.299333 29.291508 801.37462 22.383168 795.789415 14.462778z"  horiz-adv-x="1024" />

    
    <glyph glyph-name="shouye" unicode="&#58913;" d="M927.39222 417.81106c-0.037862 0.042979-0.079818 0.084934-0.11768 0.12689l-117.236098 100.988042c-0.088004 0.074701-0.182149 0.1361-0.270153 0.209778L809.768289 664.514835c0 10.908444-8.9263 19.834744-19.836791 19.834744L726.77611 684.349579c-10.906397 0-19.832697-8.9263-19.832697-19.834744l0-55.828516c0-0.597611-0.701988-0.917906-1.155313-0.529049L520.791735 767.480928c-1.644453 1.416256-3.533476 2.365884-5.508457 2.892887-5.088902 2.781346-11.610432 2.236947-16.152888-1.847068L106.149087 415.143301c-0.334621-0.300852-0.642636-0.61603-0.942465-0.937348-0.165776-0.134053-0.338714-0.255827-0.499373-0.398066l0 0c-6.375198-5.610788-6.999414-15.419178-1.385557-21.795399l52.000328-59.06421c2.982938-3.388167 7.266497-4.974291 11.468193-4.705162 3.673669-0.255827 7.441483 0.903579 10.377348 3.545756l27.281343 24.553209c5.741771 5.170766 6.212492 14.097066 1.044796 19.839861l-0.933255 1.037632c-5.16872 5.742794-14.097066 6.213515-19.839861 1.044796l-11.475356-10.330276c-2.89698-2.607384-7.366781-2.348488-9.94142 0.576121l-20.797675 23.624047c-4.365424 4.959965-3.925403 12.509918 0.98749 16.928554l365.733729 328.880379c0.25992 0.23536 0.655939 0.240477 0.920976 0.010233l195.653075-168.500669c6.435573-5.54325 16.236799-4.811586 21.779026 1.62501 2.62785 3.052522 5.194302 6.930853 4.79112 10.661827l0 63.339584c0 6.585999 5.386684 11.975752 11.971659 11.975752l31.022551 0c4.956895 0 8.975419-4.018523 8.975419-8.975419l0-139.811256 0.149403 0.021489c-0.251733-3.358491 2.186805-6.77531 4.27742-9.547447 0.041956-0.042979 0.079818-0.083911 0.119727-0.125867l117.238145-100.988042c5.858428-5.036713 14.774495-4.364401 19.808138 1.49505l0.909719 1.058099C931.217339 405.269419 931.28283 412.656667 927.39222 417.81106zM776.124028 342.077192 525.270746 553.598676c-6.016017 5.073552-14.814404 5.073552-20.829398 0L253.586021 342.077192c-3.6399-3.069919-5.740748-7.590885-5.740748-12.351306l0-270.76682c0-8.924253 7.233752-16.156982 16.156982-16.156982l169.357176 0c8.924253 0 16.158005 7.232728 16.158005 16.156982L449.517435 235.231745c0 8.924253 7.233752 16.156982 16.156982 16.156982l98.06548 0c8.924253 0 16.156982-7.232728 16.156982-16.156982l0-176.272679c0-8.924253 7.232728-16.156982 16.156982-16.156982l169.650865 0c8.924253 0 16.156982 7.232728 16.156982 16.156982l0 270.76682C781.862729 334.486306 779.761881 339.007273 776.124028 342.077192zM752.176616 85.481116c0-7.830339-6.347568-14.179954-14.179954-14.179954L622.114398 71.301162c-7.832386 0-14.179954 6.349615-14.179954 14.179954L607.934444 267.174248c0 7.830339-6.349615 14.177907-14.179954 14.177907L434.196495 281.352155c-7.831362 0-14.179954-6.347568-14.179954-14.177907l0-181.693132c0-7.830339-6.348592-14.179954-14.178931-14.179954L291.71134 71.301162c-7.831362 0-14.179954 6.349615-14.179954 14.179954L277.531386 318.597431c0 4.181229 1.842974 8.146541 5.03876 10.842952l224.64334 185.625698c5.28026 4.451382 12.999059 4.451382 18.279319 0l221.644029-188.626032c3.195785-2.696412 5.03876-6.661723 5.03876-10.842952L752.175593 85.481116z"  horiz-adv-x="1024" />

    
    <glyph glyph-name="miaosha" unicode="&#58941;" d="M507.270279 389.237281c-11.144828 0-20.179598 9.03477-20.179598 20.179598l0 341.78427c0 11.144828 9.03477 20.179598 20.179598 20.179598 11.144828 0 20.179598-9.03477 20.179598-20.179598l0-321.604672 321.604672 0c11.144828 0 20.179598-9.03477 20.179598-20.179598 0-11.144828-9.03477-20.179598-20.179598-20.179598L507.270279 389.237281zM1006.632447 301.095825c0.031722-0.465604 0.070608-0.929162 0.070608-1.402953 0-11.144828-9.03477-20.178575-20.178575-20.178575-11.144828 0-20.179598 9.03477-20.179598 20.178575 0 1.489934 0.172939 2.938935 0.478907 4.336772l-0.743944 0.186242c5.030573 27.378557 7.679913 55.579853 7.679913 84.391039 0 256.876462-208.983685 465.860147-465.860147 465.860147s-465.860147-208.983685-465.860147-465.860147 208.983685-465.860147 465.860147-465.860147c146.645918 0 277.643438 68.136843 363.092575 174.386726 3.554966 5.750981 9.899464 9.595542 17.157775 9.595542 11.144828 0 20.179598-9.03477 20.179598-20.178575 0-4.596691-1.554402-8.819876-4.142343-12.213159l0.285502-0.228197c-92.835362-116.828822-236.097206-191.872982-396.572084-191.872982-279.215236 0-506.369769 227.154533-506.369769 506.369769S228.685399 894.976694 507.900635 894.976694s506.369769-227.154533 506.369769-506.369769C1014.270405 358.763223 1011.613902 329.534528 1006.632447 301.095825z"  horiz-adv-x="1024" />

    
    <glyph glyph-name="sousuo" unicode="&#58904;" d="M960 25.6 729.6 256c108.8 147.2 96 358.4-38.4 492.8-147.2 147.2-390.4 147.2-544 0-147.2-147.2-147.2-390.4 0-544 134.4-134.4 345.6-147.2 492.8-38.4l230.4-230.4c25.6-25.6 64-25.6 89.6 0C985.6-38.4 985.6 6.4 960 25.6zM620.8 275.2c-115.2-115.2-294.4-115.2-409.6 0-115.2 115.2-115.2 294.4 0 409.6 115.2 115.2 294.4 115.2 409.6 0C729.6 569.6 729.6 390.4 620.8 275.2z"  horiz-adv-x="1024" />

    
    <glyph glyph-name="jianguoguopu" unicode="&#58936;" d="M433.834667 736.711111c13.596444 32.881778 27.192889 64.625778 40.846222 97.507556C487.139556 862.606222 506.424889 896.625778 538.168889 894.350222c11.320889-1.137778 21.560889-6.826667 30.606222-13.596444 15.872-29.468444 167.822222-142.904889 219.989333-239.274667 14.734222-28.330667 28.330667-56.718222 35.157333-88.462222 5.688889-29.468444 5.688889-61.212444 4.551111-91.875556-7.964444-132.664889-38.570667-264.248889-91.875556-386.730667-34.019556-78.279111-141.767111-102.058667-179.2-178.062222-7.964444-15.872-27.192889-23.836444-44.259556-22.698667-17.009778 1.137778-34.019556 7.964444-49.891556 15.872-68.039111 34.019556-134.940444 78.279111-175.786667 141.767111-11.320889 18.147556-21.560889 37.432889-30.606222 56.718222C216.120889 176.469333 190.008889 272.839111 195.697778 369.265778c2.275556 31.744 6.826667 64.625778 19.285333 95.288889 15.872 39.708444 41.984 74.865778 62.350222 112.298667 21.560889 37.432889 37.432889 80.497778 31.744 122.481778-2.275556 14.734222-6.826667 29.468444-6.826667 45.340444 0 14.734222 7.907556 31.744 22.698667 36.295111 14.734222 4.551111 29.468444-5.688889 39.708444-18.147556C374.840889 751.445333 382.805333 736.711111 395.264 728.746667 407.722667 721.976889 428.145778 723.114667 433.834667 736.711111M379.392 658.432C352.199111 673.166222 361.244444 631.239111 354.474667 615.367111 334.051556 567.694222 253.496889 560.924444 239.900444 343.153778c-3.413333-45.340444 5.688889-90.737778 18.147556-133.802667 27.192889-89.6 74.865778-174.648889 147.456-232.504889 31.744-24.974222 78.222222-44.259556 110.023111-20.423111C531.342222-32.199111 539.306667-14.051556 546.133333 4.096c14.734222 37.432889 51.029333 172.373333 54.442667 201.841778C611.896889 340.935111 552.903111 563.2 379.392 658.432L379.392 658.432zM634.595556 744.618667c-10.183111-2.275556-10.183111-18.147556-5.688889-28.330667 17.009778-47.616 24.974222-225.678222 31.744-386.730667 5.688889-191.658667-35.157333-225.678222-53.304889-316.416 79.36 40.846222 162.190222 313.002667 164.465778 396.913778 7.964444 170.097778-70.314667 274.432-120.206222 325.461333C647.054222 740.124444 641.365333 745.756444 634.595556 744.618667M610.759111 589.255111c5.688889 45.397333 4.551111 70.314667-6.826667 93.013333-11.320889 21.560889-23.836444 32.881778-32.881778 40.846222C559.729778 735.573333 537.031111 737.848889 523.434667 728.746667 509.838222 719.701333 498.460444 693.589333 491.690667 677.717333c-1.137778-3.413333-3.413333-7.964444-3.413333-11.320889-1.137778-10.24 4.551111-20.423111 11.320889-28.330667C522.296889 606.264889 546.133333 573.383111 568.775111 541.639111c6.826667-10.183111 23.836444-5.688889 29.468444 5.688889C603.932444 556.373333 609.621333 576.796444 610.759111 589.255111L610.759111 589.255111zM610.759111 589.255111"  horiz-adv-x="1024" />

    
    <glyph glyph-name="qunzi-copy" unicode="&#58881;" d="M220.365 629.76q-5.461 10.923-6.554 22.938-1.092 9.83 2.185 20.207t15.292 16.93q7.646 4.369 42.052 6.007t78.643 2.731 87.927 1.092h70.997q26.214 0 68.813-0.546t84.651-1.092 75.366-1.638 43.145-3.277q21.845-4.369 24.576-21.299t-3.823-42.052h-583.27zM225.826 569.685q1.092-24.030 1.092-48.060 0-20.753-1.638-44.783t-7.1-44.783q-6.554-26.214-21.845-68.267t-35.499-87.381-43.145-86.289-44.783-66.082q-14.199-16.384-27.307-30.583t-21.299-27.307-10.377-25.122 4.369-25.122q8.738-16.384 25.668-18.022t35.499 2.731 36.591 11.469 30.037 8.192q15.292 1.092 27.307 1.638t25.668-3.277 30.583-13.107 42.052-26.761q22.938-16.384 44.783-20.207t39.868-1.092 32.222 8.738 20.753 8.192q16.384 6.554 33.86 16.93t39.322 16.384 49.698 1.638 64.99-27.307q32.768-20.753 60.621-24.576t49.698 1.092 37.683 15.292 24.576 19.115q6.554 6.554 20.207 14.746t32.222 12.015 43.691 2.185 54.613-13.653q30.583-13.107 51.337-9.83t30.037 15.292 6.554 29.491-18.022 33.86q-18.569 18.569-38.775 45.329t-40.414 59.529-38.775 69.359-32.768 75.913q-13.107 34.953-23.484 65.536t-16.384 59.529-7.646 57.344 2.731 60.075h-569.071z"  horiz-adv-x="1024" />

    
    <glyph glyph-name="hongbao" unicode="&#59349;" d="M852.088652 789.860634c-28.892027 26.758434-67.824735 41.495066-109.62577 41.495066L279.489482 831.355701c-41.802058 0-80.734766-14.736633-109.626793-41.495066-29.586852-27.403117-45.88198-65.093531-45.88198-106.129132l0-598.72213c0-41.035602 16.295128-78.726016 45.88198-106.129132 28.892027-26.758434 67.824735-41.495066 109.626793-41.495066l462.9734 0c41.801035 0 80.733743 14.736633 109.62577 41.495066 29.587875 27.403117 45.883003 65.093531 45.883003 106.129132L897.971655 683.731502C897.971655 724.767104 881.676527 762.457518 852.088652 789.860634zM847.369164 85.009372c0-51.685149-49.022507-97.023754-104.907305-97.023754l-462.974423 0c-56.08332 0-107.159602 46.245254-107.159602 97.023754L172.327834 683.731502c0 50.7785 51.076282 97.023754 107.159602 97.023754l462.974423 0c55.884798 0 104.907305-45.338604 104.907305-97.023754L847.369164 85.009372zM646.369314 240.286877l0 0.217964c13.115716 0 23.754007 10.662851 23.754007 23.787776 0 13.121855-10.634198 23.75503-23.754007 23.75503l-109.835547 0.011256 106.905822 125.677351-0.151449 0.168846c9.822716 8.692986 10.68434 23.738657 1.99647 33.537837-8.732895 9.840112-23.749914 10.728342-33.556257 2.012843l-100.748588-117.224842L407.876548 454.587662c-9.812483 8.721639-24.828478 7.827269-33.550117-2.01796-8.692986-9.79918-7.831362-24.838711 1.990331-33.531698l-0.146333-0.168846 112.607684-129.675408 0-1.134847-113.177666 0.089028 0-0.100284c-13.121855 0-23.75503-10.655687-23.75503-23.782659 0-13.115716 10.634198-23.75503 23.75503-23.75503l0-0.122797 113.177666-0.082888 0-48.236608-113.188922 0.089028 0-0.100284c-13.121855 0-23.759123-10.6782-23.759123-23.778566 0-13.143345 10.638291-23.787776 23.759123-23.787776l0-0.094144 113.188922-0.084934 0-55.93494 0.11154 0c0-13.093203 10.645454-23.732517 23.766286-23.732517 13.126972 0 23.771403 10.639315 23.771403 23.732517l0.11154 0 0 55.93494 109.813035-0.010233 0 0.189312c13.121855 0 23.760147 10.689457 23.760147 23.787776 0 13.144368-10.638291 23.778566-23.760147 23.778566l-109.813035 0.011256L536.538883 240.30325 646.369314 240.286877 646.369314 240.286877zM646.369314 240.286877M767.332293 705.955666c-53.068659-86.683245-148.647505-144.647401-257.517051-144.647401s-204.448392 57.964156-257.517051 144.647401l-11.894911 18.888186-21.871123-7.953136-22.043039-10.93505c16.797571-33.505092 38.762839-63.952544 65.531506-90.720188 32.175817-32.175817 69.650313-57.440224 111.382786-75.091232 43.219337-18.280342 89.11462-27.548426 136.411833-27.548426 47.297212 0 93.193519 9.269108 136.412856 27.548426 41.732473 17.652032 79.20697 42.916439 111.381763 75.091232 26.768667 26.767644 48.734958 57.215096 65.532529 90.720188l-21.049409 11.929704-20.87647 9.94142L767.332293 705.955666z"  horiz-adv-x="1024" />

    
    <glyph glyph-name="sousuo1" unicode="&#58938;" d="M467.078 179.085c-157.322 0-284.859 125.325-284.859 280.133 0 154.818 127.537 280.377 284.859 280.377 157.323 0 284.872-125.558 284.872-280.377 0-154.808-127.549-280.133-284.872-280.133v0zM922.976 34.026l-206.539 203.338c54.051 58.791 87.294 136.317 87.294 221.855 0 183.079-150.703 331.401-336.652 331.401-185.936 0-336.651-148.322-336.651-331.401 0-182.847 150.716-331.157 336.651-331.157 80.335 0 154.026 27.772 211.889 74.033l207.42-204.073c10.111-10.015 26.501-10.015 36.588 0 10.137 9.744 10.137 25.989 0 36.004v0z"  horiz-adv-x="1024" />

    
    <glyph glyph-name="zhekou" unicode="&#59077;" d="M779.795773 879.553379 228.93668 879.553379C102.831152 879.553379 0.601116 777.32435 0.601116 651.218823l0-550.859094c0-126.105527 102.229029-228.334557 228.334557-228.334557l550.859094 0c126.105527 0 228.334557 102.229029 228.334557 228.334557L1008.129323 651.218823C1008.13033 777.32435 905.901301 879.553379 779.795773 879.553379zM356.489115 149.405578c0-36.554311-17.435392-54.835495-52.28503-54.835495l-58.024331 0-7.651394 32.518677c18.700052-1.275736 36.554311-1.912093 53.560766-1.912093 20.404725 0 30.605576 11.057719 30.605576 33.156041L322.694702 322.839192c-26.361515-9.35506-58.242827-19.347485-95.643937-29.968212l-8.92713 34.43077c34.431777 8.071269 69.282422 18.062687 104.57006 29.969219L322.693696 514.127065l-94.368201 0 0 33.794413 94.368201 0L322.693696 667.795333l33.794413 0 0-119.873855 82.891613 0 0-33.794413-82.891613 0 0-144.741138c28.90191 11.048657 57.804828 23.800981 86.716807 38.257977l0-34.431777c-28.484049-13.609191-57.385959-26.142012-86.716807-37.620613L356.488108 149.405578zM789.436792 424.859794 688.054561 424.859794l0-341.768312-34.431777 0L653.622784 424.859794 520.995599 424.859794l0-33.794413c-3.826201-125.831652-34.860714-226.576518-93.093472-302.234599l-24.867283 26.142012c51.856093 65.885159 79.702777 157.912329 83.528978 276.092587L486.563822 613.597203c99.470137 2.550465 188.737409 19.547857 267.803829 51.010301l17.215888-31.243948c-76.514948-28.484049-160.043926-44.633636-250.586933-48.459836l0-126.249513 268.441193 0L789.437799 424.859794z"  horiz-adv-x="1024" />

    
    <glyph glyph-name="naiping1" unicode="&#58905;" d="M771.2 467.2c-32 0-28.8-25.6-28.8-25.6l0-496c0-12.8-9.6-16-22.4-16L300.8-70.4c-12.8 0-16 16-16 16l0 99.2 214.4 0c12.8 0 22.4 16 22.4 28.8s-9.6 28.8-22.4 28.8L284.8 102.4l0 115.2 214.4 0c12.8 0 22.4 16 22.4 28.8 0 12.8-9.6 28.8-22.4 28.8L284.8 275.2l0 169.6c0 0 0 25.6-28.8 25.6s-28.8-25.6-28.8-25.6l0-496C227.2-96 246.4-128 288-128l448 0c38.4 0 60.8 32 60.8 73.6L796.8 441.6C796.8 441.6 800 467.2 771.2 467.2zM265.6 499.2l492.8 0c22.4 0 38.4 16 38.4 38.4L796.8 688c0 22.4-16 38.4-38.4 38.4l-131.2 0c0 0 0 67.2 0 115.2 0 54.4-57.6 54.4-57.6 54.4l-115.2 0c0 0-57.6-3.2-57.6-57.6 0-16 0-22.4 0-25.6l0-89.6L265.6 723.2c-22.4 0-38.4-16-38.4-38.4l0-150.4C227.2 515.2 243.2 499.2 265.6 499.2zM454.4 838.4l115.2 0 0-115.2-115.2 0L454.4 838.4zM284.8 659.2c0 3.2 3.2 9.6 9.6 9.6l438.4 0c3.2 0 6.4-3.2 6.4-9.6l0-99.2c0-3.2-3.2-9.6-9.6-9.6L291.2 550.4c-3.2 0-9.6 3.2-9.6 9.6L281.6 659.2z"  horiz-adv-x="1024" />

    
    <glyph glyph-name="baozhuanhuan" unicode="&#58991;" d="M914.286-128h-804.571c-53.638 0-97.524 43.886-97.524 97.524l73.143 585.143c0 53.638 43.886 97.524 97.524 97.524h73.143c7.314 136.533 117.029 243.81 256 243.81s248.686-107.276 256-243.81h73.143c53.638 0 97.524-43.886 97.524-97.524l73.143-585.143c-0-53.638-43.886-97.524-97.524-97.524zM512 847.238c-109.714 0-199.924-85.333-207.238-195.048h414.476c-7.314 109.714-97.524 195.048-207.238 195.048zM889.905 554.667c0 26.819-21.943 48.762-48.762 48.762l-658.286-0c-26.819 0-48.762-21.943-48.762-48.762l-12.19-90.21c39.010-46.324 158.476-182.857 307.2-219.429 9.752 36.571 41.448 63.39 82.895 63.39 36.571 0 68.267-24.381 80.457-58.514 143.848 43.886 268.19 170.667 307.2 214.552l-9.752 90.21zM475.429 225.524c0-19.505 17.067-36.571 36.571-36.571s36.571 17.067 36.571 36.571c0 19.505-17.067 36.571-36.571 36.571s-36.571-17.067-36.571-36.571zM909.41 401.067c-53.638-53.638-175.543-163.352-314.514-199.924-9.752-36.571-43.886-60.952-80.457-60.952-36.571 0-68.267 21.943-80.457 56.076-170.667 31.695-292.571 175.543-316.952 207.238l-56.076-433.981c0-26.819 21.943-48.762 48.762-48.762h804.571c26.819 0 48.762 21.943 48.762 48.762l-53.638 431.543z"  horiz-adv-x="1024" />

    
    <glyph glyph-name="shouye1" unicode="&#59007;" d="M952.289772 392.890484 531.525706 799.239236c-5.572926 5.382591-12.757558 8.060583-19.938098 8.079002-0.11154 0.002047-0.223081 0.001023-0.334621 0.002047-0.11154-0.001023-0.223081 0-0.334621-0.002047-7.181563-0.01842-14.365172-2.696412-19.938098-8.079002L70.216201 392.890484c-11.446703-11.053754-11.763928-29.294187-0.710175-40.74089 11.053754-11.446703 29.294187-11.763928 40.74089-0.710175l57.783031 55.803957 0-354.843704c0-45.863561 37.311791-83.175351 83.175351-83.175351l89.973174 0 45.520753 0 11.874445 0c14.431687 1.568728 25.664519 13.789051 25.664519 28.638247 0 0.059352-0.004093 0.118704-0.004093 0.178055 0 0.059352 0.004093 0.11768 0.004093 0.178055l0 51.100842c0 1.026376-0.055259 2.038426-0.160659 3.037173L424.077531 200.267419 609.423867 200.267419c15.011902 0 27.181059 12.169157 27.181059 27.181059 0 15.011902-12.169157 27.181059-27.181059 27.181059L393.636219 254.629537c-15.011902 0-27.181059-12.169157-27.181059-27.181059 0-0.273223 0.01228-0.544399 0.020466-0.815575-0.007163-0.272199-0.020466-0.542352-0.020466-0.815575l0-198.967564L251.205299 26.849764c-14.08888 0-25.550932 11.462053-25.550932 25.550932L225.654366 462.893838l285.59862 275.813766 268.402983-259.208577-0.588401 0 0-427.099355c0-14.08888-11.462053-25.550932-25.550932-25.550932L644.408659 26.848741l0-0.173962-5.980201 0c-15.912411 0-28.812209-12.899798-28.812209-28.812209 0-15.912411 12.899798-28.812209 28.812209-28.812209l83.015715 0c1.064238 0 2.113127 0.062422 3.14769 0.173962l28.92682 0c45.862537 0 83.175351 37.311791 83.175351 83.175351L836.694033 424.417525l75.566046-72.977082c11.446703-11.053754 29.686113-10.736529 40.74089 0.710175C964.0537 363.596298 963.735451 381.836731 952.289772 392.890484z"  horiz-adv-x="1024" />

    
    <glyph glyph-name="1" unicode="&#59121;" d="M511.999488-50.45488c-116.047016 0-225.14783 45.191248-307.204707 127.250172C122.735857 158.853194 77.544609 267.95503 77.544609 384c0 116.047016 45.191248 225.148853 127.249149 307.204707 82.056877 82.057901 191.158714 127.249149 307.204707 127.249149 116.047016 0 225.148853-45.191248 307.206754-127.249149 82.056877-82.056877 127.248126-191.157691 127.248126-307.204707 0-116.045993-45.191248-225.148853-127.248126-307.204707C737.147318-5.263631 628.046504-50.45488 511.999488-50.45488zM511.999488 765.807822c-210.529901 0-381.807822-171.277922-381.807822-381.807822 0-210.530924 171.277922-381.808846 381.807822-381.808846 210.529901 0 381.807822 171.277922 381.807822 381.808846C893.807311 594.529901 722.529389 765.807822 511.999488 765.807822zM360.807021 392.950859c-44.99375 0-81.59946 36.605709-81.59946 81.59946 0 44.99375 36.605709 81.598436 81.59946 81.598436 44.99375 0 81.598436-36.604686 81.598436-81.598436C442.405457 429.556569 405.801794 392.950859 360.807021 392.950859zM360.807021 503.502721c-15.9646 0-28.952402-12.987802-28.952402-28.951379 0-15.9646 12.988826-28.953426 28.952402-28.953426 15.963577 0 28.951379 12.988826 28.951379 28.953426C389.7584 490.514919 376.770598 503.502721 360.807021 503.502721zM655.899876 392.950859c-44.992727 0-81.598436 36.605709-81.598436 81.59946 0 44.99375 36.605709 81.598436 81.598436 81.598436 44.99375 0 81.598436-36.604686 81.598436-81.598436C737.498312 429.556569 700.893626 392.950859 655.899876 392.950859zM655.899876 503.502721c-15.963577 0-28.952402-12.987802-28.952402-28.951379 0-15.9646 12.988826-28.953426 28.952402-28.953426 15.9646 0 28.952402 12.988826 28.952402 28.953426C684.852278 490.514919 671.863453 503.502721 655.899876 503.502721zM512.155031 67.97337c-148.001799 0-273.715989 118.440529-292.421003 275.503704-1.720178 14.434757 8.589632 27.532053 23.025413 29.252231 14.43885 1.707898 27.533077-8.590656 29.251208-23.026436 15.554254-130.59843 118.79357-229.082442 240.144382-229.082442 120.530121 0 223.679385 97.730858 239.931534 227.327472 1.810229 14.425547 14.957667 24.65554 29.394471 22.842241 14.424524-1.809205 24.65247-14.968923 22.844288-29.392424-9.382695-74.819033-43.718711-143.722332-96.680946-194.019879C653.727397 96.172619 584.301188 67.97337 512.155031 67.97337z"  horiz-adv-x="1024" />

    
    <glyph glyph-name="diqiu" unicode="&#58902;" d="M1226.216877 700.522765c-69.732744-45.29809-98.65156-77.519612-139.975663-75.640023-41.297251 1.852738-112.372559 45.915669-141.667292 58.535765-46.184182 19.843087-112.050343 34.71869-152.434651 8.377596-32.114117-23.387455-4.591567-62.509753 7.330396-77.170546s69.625339-58.535765 86.675895-80.070483c9.74701-12.351583 10.606251-30.207677-9.156283-33.02706-38.236206-10.847912-66.05412-2.497168-91.213759 2.899937-25.18649 5.370254-51.366477 24.595762-91.938743 21.937486-50.936856-3.356409-33.590937-47.607299-33.590937-47.607299s42.156492-126.415772 155.57625-155.039224c99.054329-24.97168 553.673156 205.197394 603.616515 289.215013C1467.717186 694.078461 1324.573074 764.455636 1226.216877 700.522765L1226.216877 700.522765zM1304.917945 587.962248c-52.333122-38.477868-189.999576-111.244805-345.763784-175.446188-51.769246-21.319907-97.013633-35.604782-128.375915-26.824417-34.664988 9.693308-71.182713 31.711348-83.292635 59.90518-5.262849 12.27103-3.061045 19.332913 13.747849 12.27103 21.131948-8.860919 39.256555-11.116425 63.556952-14.123767 28.301237-3.490665 55.206208 0 55.206208 0 45.781413 6.847073 52.27942 17.99035 62.912522 30.798405 12.405286 14.983008 14.741346 35.846443 6.900776 63.395845-8.619257 30.315082-48.251729 58.508914-48.251729 58.508914s-61.784769 36.83994-37.403817 50.534087c20.702328 11.626599 66.993915-16.620935 96.288649-34.530731 19.064401-11.626599 76.928884-37.269561 105.740295-41.216697 53.004404-7.249842 99.564504 16.970002 163.228861 67.31613C1273.985284 673.805753 1413.880393 668.032731 1304.917945 587.962248L1304.917945 587.962248zM1176.407774 353.819187c-16.594084 0-30.019718-13.479337-30.019718-30.100272-29.455842-220.932237-222.221098-391.518346-450.725393-391.518346-170.666662 0-319.181028 95.080342-395.707144 235.297666 203.022441 43.794419 317.757911 105.525485 333.895523 126.120408 9.236836 9.371093 9.209985 63.986573-58.401509 30.127123-89.146211-44.680511-203.344656-81.171385-300.519397-102.115374-19.359765 50.37298-30.019718 105.122716-30.019718 162.342769 0 249.501987 201.840985 451.772592 450.725393 451.772592 101.282985 0 205.33165-36.356618 281.562401-98.544155 0 0 13.210824-11.250681 26.904971-10.901615 16.701489 0.42962 27.73736 12.244178 27.73736 28.945667 0 7.545206-2.765681 14.419131-7.330396 19.708831 0.187959 0.161108-1.611076 1.825886-2.550871 2.604573-0.724984 0.671282-1.47682 1.288861-2.255507 1.879589-88.233268 72.713235-200.954893 116.561356-324.067959 116.561356-282.126278 0-510.845383-229.229279-510.845383-512.026839 0-60.952379 10.659954-119.407591 30.153974-173.620302-21.883784-3.463814-42.183343-5.853577-60.173693-7.088735-69.491083-4.725823-120.696452 3.222152-60.11999 90.354518 37.45752 53.863645 48.573945 75.854833 30.073421 90.354518-19.708831 10.606251-35.9807-7.276694-35.9807-7.276694s-70.726241-84.232429-84.232429-143.278369c-5.907279-28.811411-26.958674-99.645057 120.213129-90.354518 39.444513 2.470317 77.358504 6.954479 113.500312 12.808055 83.695404-168.2769 257.074044-283.87161 457.411358-283.87161 255.328712 0 470.836993 186.132993 508.724133 431.446182 2.094399 13.237675 2.094399 13.237675 2.094399 20.32641C1206.454344 340.33985 1193.02871 353.819187 1176.407774 353.819187L1176.407774 353.819187z"  horiz-adv-x="1430" />

    
    <glyph glyph-name="shouji" unicode="&#58919;" d="M720.129736-63.855074l-416.260495 0c-61.306274 0-111.005186 50.116421-111.005186 111.964024L192.864054 719.89105c0 61.847603 49.697889 111.964024 111.005186 111.964024l416.260495 0c61.306274 0 111.005186-50.116421 111.005186-111.964024l0-671.7821C831.133899-13.739676 781.43601-63.855074 720.129736-63.855074L720.129736-63.855074zM775.623631 719.89105c0 30.905894-24.848944 55.982012-55.493895 55.982012l-416.260495 0c-30.644951 0-55.502082-25.076118-55.502082-55.982012l0-27.991518 527.256472 0L775.623631 719.89105 775.623631 719.89105zM775.623631 635.918543 248.367159 635.918543 248.367159 188.933279l527.256472 0L775.623631 635.918543 775.623631 635.918543zM775.623631 132.951267 248.367159 132.951267l0-84.842317c0-30.925337 24.857131-55.982012 55.502082-55.982012l416.260495 0c30.644951 0 55.493895 25.056676 55.493895 55.982012L775.623631 132.951267 775.623631 132.951267zM512.001535 20.117432c-22.980387 0-41.614793 18.797112-41.614793 41.98523 0 23.190165 18.634406 41.989323 41.614793 41.989323 22.979364 0 41.612747-18.797112 41.612747-41.989323C553.614282 38.914544 534.980899 20.117432 512.001535 20.117432L512.001535 20.117432z"  horiz-adv-x="1024" />

    
    <glyph glyph-name="chengzi" unicode="&#59310;" d="M510.75072 356.5056m-472.18176 0a472.18176 472.18176 0 1 1 944.36352 0 472.18176 472.18176 0 1 1-944.36352 0ZM508.78976 676.77184c-20.6848 44.63616 19.46624 107.20256 89.68704 139.74528 70.21568 32.54272 143.90784 22.7328 164.59776-21.90336L508.78976 676.77184zM508.78976 676.77184c20.6848-44.63616 94.37696-54.44608 164.59776-21.90336 70.21568 32.54272 110.37184 95.104 89.68704 139.74528L508.78976 676.77184zM370.32448 675.50208m-23.6544 0a23.6544 23.6544 0 1 1 47.3088 0 23.6544 23.6544 0 1 1-47.3088 0ZM254.208 582.3232m-23.6544 0a23.6544 23.6544 0 1 1 47.3088 0 23.6544 23.6544 0 1 1-47.3088 0ZM743.41376 614.93248m-23.6544 0a23.6544 23.6544 0 1 1 47.3088 0 23.6544 23.6544 0 1 1-47.3088 0ZM859.53024 507.776m-23.6544 0a23.6544 23.6544 0 1 1 47.3088 0 23.6544 23.6544 0 1 1-47.3088 0ZM767.06816 461.184m-23.6544 0a23.6544 23.6544 0 1 1 47.3088 0 23.6544 23.6544 0 1 1-47.3088 0ZM631.59296 549.34528m-23.6544 0a23.6544 23.6544 0 1 1 47.3088 0 23.6544 23.6544 0 1 1-47.3088 0ZM878.16704 330.73152m-23.6544 0a23.6544 23.6544 0 1 1 47.3088 0 23.6544 23.6544 0 1 1-47.3088 0ZM504.02304 671.64672s-27.4944 173.22496-8.24832 192.47104 33.90976 12.17024 41.24672 5.49888c15.12448-13.7472-16.49664-159.47776-16.49664-178.72384 0-19.24608-8.24832-38.49216-16.50176-19.24608zM460.36992 674.33984s33.19808 5.24288 54.16448 0c20.9664-5.24288 22.71232-6.9888 26.20928-12.23168 3.49184-5.24288-24.45824-3.49184-24.45824-3.49184s-19.22048 5.24288-31.44704 5.24288H463.872s-13.98272 5.23776-3.50208 10.48064z"  horiz-adv-x="1024" />

    
    <glyph glyph-name="diqiu1" unicode="&#59213;" d="M498.16576 768.1792h25.45152c44.16512-2.048 88.1664-10.5984 129.21856-27.2384 85.6064-33.87392 157.8496-99.92192 199.44448-182.0416 26.43456-51.456 40.42752-109.0304 41.66656-166.81984v-13.7216c-1.22368-57.04704-14.83776-113.86368-40.63744-164.82304-25.11872-50.18624-61.56288-94.63296-105.6512-129.3568-45.1072-35.57376-98.33984-60.81536-154.48576-73.0368-22.79936-5.1456-46.11072-7.53664-69.40672-8.92928h-25.472c-30.5408 1.6128-61.01504 5.72928-90.46016 14.12096-71.30112 19.7632-136.40704 60.94848-185.0368 116.6848a382.4896 382.4896 0 0 0-76.26752 134.21056c-11.68384 35.85024-17.6384 73.4464-18.5856 111.11424v13.69088c1.36704 69.92384 21.93408 139.39712 59.63264 198.35904C227.55328 653.3888 286.27456 704.3584 354.4576 734.74048c45.1072 20.51584 94.30016 31.21152 143.7184 33.43872zM425.05216 686.4896c-24.26368-30.49472-40.10496-66.6368-52.97152-103.168 18.05824-4.53632 36.59264-6.50752 54.9632-9.27744 22.784-2.3552 45.62944-4.4288 68.56704-4.608-0.01536 55.552 0.01536 111.09376-0.01536 166.656-29.1584-6.144-52.60288-26.7776-70.53824-49.60256z m101.2224-117.0432c31.0016 0.5632 61.99296 3.13344 92.61568 8.09984 10.40896 1.3312 20.736 3.2768 30.9248 5.80608-15.0528 42.752-34.44224 85.32992-66.2528 118.36416-15.54432 16.29184-34.92864 29.64992-57.23648 34.3808-0.08704-55.552-0.01024-111.09888-0.0512-166.64576z m-131.4816 148.4288a352.47616 352.47616 0 0 1-142.44352-93.44c28.43648-15.02208 58.91072-26.12736 90.03008-34.0992 16.25088 48.97792 39.05024 97.42336 75.776 134.4768-7.9872-1.56672-15.66208-4.352-23.36256-6.9376z m208.7936 7.168c7.63904-7.05024 13.78816-15.47264 20.46464-23.38304 25.03168-33.4336 42.53696-71.8848 55.53152-111.4112 31.104 8.10496 61.4912 19.26656 90.05056 34.08896-44.46208 48.18944-102.6304 83.82464-166.05184 100.70016zM231.92064 600.4736C187.904 543.34464 161.78176 472.61184 158.98112 400.4864c51.0464 0.08704 102.0928 0.03072 153.1392 0.03072 0.98816 54.03648 7.92064 108.01152 21.51424 160.34816-35.26144 9.2672-69.6832 22.13888-101.71904 39.60832z m456.32-39.61344c13.59872-52.33152 20.5312-106.30656 21.504-160.32768 51.072 0.01024 102.144 0 153.22624 0-3.00544 72.10496-28.928 142.88384-73.07264 199.97184-31.9488-17.59232-66.4576-30.27968-101.6576-39.64416z m-345.50784-160.2048c50.95936-0.27136 101.91872-0.0512 152.86784-0.12288V538.80832c-44.35456 0.8192-88.74496 5.4272-132.11648 14.92992-13.17888-49.92-19.6096-101.504-20.75136-153.088z m183.54176 138.16832c0-46.11072 0-92.20096 0.01536-138.2912 50.95936 0.08704 101.9136-0.16896 152.86784 0.128-1.14688 51.58912-7.5776 103.168-20.76672 153.10848-43.35104-9.55904-87.7568-14.12096-132.11648-14.9504z m-367.31904-168.94464c2.8672-72.12544 28.93312-142.85824 72.97536-199.9872 32 17.5104 66.47296 30.30528 101.70368 39.63904-13.60896 52.3264-20.48 106.32192-21.53984 160.34816-51.0464-0.03072-102.0928-0.03072-153.1392 0z m183.79264-0.12288c1.13664-51.59424 7.49568-103.2448 20.80768-153.1648 43.3152 9.66656 87.72096 14.12096 132.03456 14.98112 0.01536 46.09024 0.01536 92.19584 0.01536 138.2912-50.95424-0.0768-101.9136 0.13312-152.8576-0.1024z m183.5264 0.1024v-138.27584c44.3904-0.80896 88.7808-5.4784 132.16768-14.91456a644.18816 644.18816 0 0 1 20.5312 153.27232c-50.90304-0.18432-101.80096-0.03584-152.69888-0.08192z m183.4496 0c-0.89088-54.016-7.91552-107.99104-21.46816-160.32768 35.22048-9.28768 69.67296-22.08256 101.66272-39.6288 44.1344 57.07264 70.04672 127.8464 73.05216 199.94624-51.07712 0.03072-102.1696 0-153.2416 0.01024z m-337.61792-182.71232c14.90944-42.8544 34.45248-85.46304 66.27328-118.528 15.52896-16.26112 34.9184-29.60384 57.21088-34.304 0.04608 55.53152 0 111.0784 0.01536 166.62528-41.45664-0.8192-82.944-5.03808-123.49952-13.79328z m154.1632 13.81376c0.02048-55.552-0.0256-111.11424 0.04096-166.656 29.09184 6.144 52.52096 26.7008 70.43072 49.50528 24.31488 30.53056 40.25856 66.7136 53.05344 103.34208-18.59584 4.49024-37.61664 6.656-56.50944 9.3952-22.29248 2.17088-44.5952 4.2752-67.01056 4.41344z m-273.98656-54.91712c44.4416-48.15872 102.58432-83.84 165.9904-100.64384-36.73088 37.15072-59.66336 85.59104-75.88864 134.67136a422.23616 422.23616 0 0 1-90.10176-34.02752z m427.264 34.05824c-16.31744-49.11104-39.20896-97.6128-76.01664-134.8096 63.36512 16.95232 121.5488 52.50048 166.01088 100.66944-28.416 15.0528-58.90048 26.06592-89.98912 34.14016z m0 0"  horiz-adv-x="1024" />

    
    <glyph glyph-name="jianguo1" unicode="&#58625;" d="M433.835 736.711c13.596 32.882 27.193 64.626 40.846 97.508 12.459 28.388 31.744 62.407 63.488 60.132 11.321-1.138 21.561-6.827 30.606-13.596 15.872-29.468 167.822-142.905 219.989-239.275 14.734-28.331 28.331-56.718 35.157-88.462 5.689-29.468 5.689-61.212 4.551-91.876-7.964-132.665-38.571-264.249-91.876-386.731-34.020-78.279-141.767-102.059-179.2-178.062-7.964-15.872-27.193-23.836-44.26-22.699-17.010 1.138-34.020 7.964-49.892 15.872-68.039 34.020-134.94 78.279-175.787 141.767-11.321 18.148-21.561 37.433-30.606 56.718-40.732 88.462-66.844 184.832-61.156 281.259 2.276 31.744 6.827 64.626 19.285 95.289 15.872 39.708 41.984 74.866 62.35 112.299 21.561 37.433 37.433 80.498 31.744 122.482-2.276 14.734-6.827 29.468-6.827 45.34 0 14.734 7.908 31.744 22.699 36.295 14.734 4.551 29.468-5.689 39.708-18.148 10.183-11.378 18.148-26.112 30.606-34.076 12.459-6.77 32.882-5.632 38.571 7.964M379.392 658.432c-27.193 14.734-18.148-27.193-24.917-43.065-20.423-47.673-100.978-54.443-114.574-272.213-3.413-45.34 5.689-90.738 18.148-133.803 27.193-89.6 74.866-174.649 147.456-232.505 31.744-24.974 78.222-44.26 110.023-20.423 15.815 11.378 23.78 29.525 30.606 47.673 14.734 37.433 51.029 172.373 54.443 201.842 11.321 134.997-47.673 357.262-221.184 452.494v0zM634.596 744.619c-10.183-2.276-10.183-18.148-5.689-28.331 17.010-47.616 24.974-225.678 31.744-386.731 5.689-191.659-35.157-225.678-53.305-316.416 79.36 40.846 162.19 313.003 164.466 396.914 7.964 170.098-70.315 274.432-120.206 325.461-4.551 4.608-10.24 10.24-17.010 9.102M610.759 589.255c5.689 45.397 4.551 70.315-6.827 93.013-11.321 21.561-23.836 32.882-32.882 40.846-11.321 12.459-34.020 14.734-47.616 5.632-13.596-9.045-24.974-35.157-31.744-51.029-1.138-3.413-3.413-7.964-3.413-11.321-1.138-10.24 4.551-20.423 11.321-28.331 22.699-31.801 46.535-64.683 69.177-96.427 6.827-10.183 23.836-5.689 29.468 5.689 5.689 9.045 11.378 29.468 12.516 41.927v0zM610.759 589.255z"  horiz-adv-x="1024" />

    
    <glyph glyph-name="xiaolian" unicode="&#58890;" d="M218.296-66c-69.627 0-126.28 56.525-126.28 126s56.653 126 126.28 126c69.627 0 126.28-56.525 126.28-126s-56.653-126-126.28-126zM218.296 139.258c-43.854 0-79.527-35.557-79.527-79.247s35.673-79.258 79.527-79.258c43.842 0 79.527 35.557 79.527 79.247s-35.673 79.258-79.527 79.258zM801.426-66c-69.639 0-126.292 56.525-126.292 126s56.653 126 126.292 126c69.627 0 126.28-56.525 126.28-126s-56.653-126-126.28-126zM801.426 139.258c-43.854 0-79.539-35.557-79.539-79.247s35.684-79.258 79.539-79.258 79.527 35.557 79.527 79.247-35.673 79.258-79.527 79.258zM515.109 137.751c-153.538 0-166.29 111.238-166.394 112.348-1.262 12.858 8.123 24.289 20.969 25.562 12.717 1.298 24.148-7.995 25.539-20.723 0.432-3.412 10.496-70.422 119.888-70.422 109.858 0 119.548 67.593 119.91 70.469 1.578 12.693 12.951 21.833 25.808 20.501 12.717-1.414 21.939-12.647 20.689-25.375-0.128-1.146-12.88-112.359-166.407-112.359zM752.042 449.958c-11.689 0-21.775 8.754-23.178 20.642-2.677 22.138-16.177 70.632-38.922 70.632-22.582 0-34.691-48.121-36.759-70.083-1.216-12.858-12.448-22.231-25.469-21.086-12.858 1.204-22.29 12.611-21.086 25.458 3.927 41.774 25.89 112.464 83.302 112.464 57.039 0 80.497-70.363 85.359-111.927 1.508-12.822-7.668-24.428-20.501-25.937-0.923-0.117-1.836-0.163-2.747-0.163zM434.763 449.958c-11.689 0-21.775 8.742-23.178 20.618v0c-2.677 22.138-16.177 70.643-38.922 70.643-22.57 0-34.691-48.121-36.759-70.083-1.216-12.858-12.611-22.29-25.458-21.086-12.858 1.204-22.301 12.611-21.086 25.458 3.916 41.774 25.878 112.464 83.302 112.464 57.027 0 80.486-70.363 85.348-111.927 1.496-12.822-7.679-24.428-20.501-25.937-0.923-0.105-1.847-0.152-2.747-0.152zM675.133 60c0 5.353 0.443 10.59 1.088 15.757-50.073-25.164-106.562-39.425-166.372-39.425-59.797 0-116.288 14.259-166.359 39.425 0.642-5.178 1.087-10.414 1.087-15.757 0-11.863-1.753-23.295-4.804-34.177 52.001-23.213 109.531-36.233 170.089-36.233 60.558 0 118.087 13.021 170.089 36.233-3.062 10.882-4.816 22.325-4.816 34.177zM211.984 185.965c-45.97 61.609-73.216 137.887-73.216 220.407 0 204.042 166.464 370.041 371.092 370.041 204.627 0 371.092-165.998 371.092-370.041 0-82.52-27.246-158.797-73.216-220.407 17.358-0.865 33.757-5.19 48.565-12.367 45.058 66.507 71.392 146.63 71.392 232.773 0 229.816-187.446 416.793-417.846 416.793s-417.833-186.967-417.833-416.782c0-86.142 26.333-166.267 71.392-232.773 14.821 7.164 31.22 11.501 48.577 12.354z"  horiz-adv-x="1024" />

    
    <glyph glyph-name="bao" unicode="&#58887;" d="M954.084-83.627H75.207l-3.584 16.84c-10.809 50.232-102.172 493.624 5.746 601.6 75.207 75.263 254.18 123.847 455.907 123.847 199.453 0 356.41-46.934 419.897-125.554 95.005-117.362 13.881-550.514 4.324-599.552l-3.413-17.18zM109.852-40.96h809.074c25.543 139.492 68.04 464.555 1.138 547.271-54.67 67.641-202.809 109.682-386.73 109.682-188.075 0-359.083-44.772-425.7-111.389-74.525-74.41-26.51-404.024 2.218-545.564zM62.009 162.702h899.925v-42.666H62.01v42.666zM725.106 413.07h-42.667V646.03c0 89.885-73.102 162.93-162.987 162.93-89.884 0-162.986-73.102-162.986-162.93v-232.96h-42.667V646.03c0 113.38 92.274 205.597 205.653 205.597s205.654-92.274 205.654-205.597v-232.96z"  horiz-adv-x="1024" />

    
    <glyph glyph-name="shouye-copy" unicode="&#58891;" d="M879.461 378.762l-366.588 336.911-368.334-335.167c-6.983-6.983-6.983-17.457 0-24.441s17.457-6.983 24.441 0l343.894 314.219 343.894-314.219c3.492-3.492 6.983-5.238 12.219-5.238s8.726 1.745 12.219 5.238c5.238 5.238 5.238 15.712-1.745 22.695zM767.739 371.781c-10.474 0-17.457-6.983-17.457-17.457v-267.084h-143.143v186.784h-190.277v-186.784h-143.143v267.084c0 10.474-8.726 17.457-17.457 17.457-10.474 0-17.457-6.983-17.457-17.457v-301.997h214.715v186.784h118.704v-186.784h214.715v301.997c-1.745 10.474-8.726 17.457-19.202 17.457zM642.051 621.409h106.484v-92.519c0-10.474 8.726-17.457 17.457-17.457 10.474 0 17.457 6.983 17.457 17.457v127.433h-143.143c-10.474 0-17.457-6.983-17.457-17.457 1.745-8.726 10.474-17.457 19.202-17.457z"  horiz-adv-x="1024" />

    
    <glyph glyph-name="morentupian_xiaolian_yiqueren" unicode="&#58882;" d="M342.955908 466.302846a21.453005 21.453005 0 0 0-17.216037 8.688467C308.738364 497.785131 287.124461 509.691549 263.20436 509.691549a83.613088 83.613088 0 0 1-65.914358-34.968398 21.453005 21.453005 0 0 0-34.432074 25.636341A126.679997 126.679997 0 0 0 263.150728 552.59756c37.542759 0 71.9212-18.610482 96.913952-52.238068a21.453005 21.453005 0 0 0-17.216037-34.217543zM680.894375 466.302846a21.453005 21.453005 0 0 0-16.089754 35.772886A135.582994 135.582994 0 0 0 762.898488 547.234309c35.987416 0 69.239575-15.178001 96.538524-44.729516a21.453005 21.453005 0 0 0-31.482286-29.176088C809.022449 493.601795 787.408546 504.328298 763.917505 504.328298h-0.697222a93.642368 93.642368 0 0 1-66.343419-30.73143 21.453005 21.453005 0 0 0-15.982489-7.294022zM509.484862 236.165731h-5.899577c-83.130396 3.003421-139.444535 69.454105-141.536202 72.242996a21.453005 21.453005 0 0 0 32.983995 27.459847c0.64359-0.750855 46.821184-54.705164 110.482978-56.850465 40.11712-1.340813 79.912445 18.12779 117.991529 57.976747a21.453005 21.453005 0 1 0 30.94596-29.712412c-45.373106-46.928449-94.125061-71.116713-144.968683-71.116713zM176.480586 57.891257a21.453005 21.453005 0 0 0-15.338898 6.650431 489.71848 489.71848 0 1 0 840.528749 341.531846 487.144119 487.144119 0 0 0-138.479149-341.263683 21.453005 21.453005 0 0 0-30.785063 29.926942 446.812469 446.812469 0 1 1-640.533107-0.42906 21.453005 21.453005 0 0 0-15.392532-36.416476zM511.951957-83.644946a494.169978 494.169978 0 0 0-84.471208 7.240389 21.453005 21.453005 0 1 0 7.347654 42.262421 451.424865 451.424865 0 0 1 77.123554-6.596799 390.551962 390.551962 0 0 1 77.44535 7.669449 21.453005 21.453005 0 0 0 7.883979-42.155155 435.710539 435.710539 0 0 0-85.329329-8.420305zM241.536825-127.999035a21.453005 21.453005 0 0 0-19.361337 30.677798c1.233548 2.627993 10.726503 24.992751-5.953209 38.883572s-43.549601 24.402794-62.535511 31.643183a150.707363 150.707363 0 0 0-27.513479 12.281846c-19.039542 12.550008-33.949381 39.312632-25.582709 66.182521 6.918594 22.150228 30.624165 48.269262 103.886178 46.928449 12.979068 0.375428 151.136423 0 254.647174-163.203738l0.589957-1.019018c2.306198-4.076071 9.224792-19.575867 2.252566-46.338491a21.453005 21.453005 0 0 0-41.511565 10.726503 34.592971 34.592971 0 0 1 1.28718 15.285266c-92.301556 143.735136-211.25847 141.589835-216.299926 141.48257h-1.233548c-45.051311 0.804488-60.551108-10.136545-62.589143-16.786977-1.769873-5.685046 2.949788-14.158984 8.259407-17.645096a175.110156 175.110156 0 0 1 19.200439-7.991245c21.7748-8.259407 51.594478-19.6295 74.602827-38.669042 34.592971-28.639762 26.440829-71.760303 17.269669-90.531683a21.453005 21.453005 0 0 0-19.41497-11.906418z m180.687938 41.511566l0.750855-1.179916z m0 0zM582.63961-127.945402a21.453005 21.453005 0 0 0-20.755783 16.089754c-7.025859 26.816257 0 42.208788 2.252566 46.338491l0.589958 1.019018c103.457118 162.935576 241.614473 163.579166 254.647173 163.203738 73.422911 1.28718 96.967584-24.778221 103.886179-46.928449 8.366672-26.816257-6.543167-53.632513-25.582709-66.182521a150.171037 150.171037 0 0 0-27.51348-12.281846c-18.98591-7.240389-44.944046-17.108772-62.53551-31.643183s-7.133124-36.416477-5.953209-38.883572a21.453005 21.453005 0 0 0-38.669042-18.610482c-9.17116 18.825012-17.323302 61.945553 17.269669 90.531682 23.008348 19.039542 52.828026 30.409635 74.602826 38.669043a175.378319 175.378319 0 0 1 19.146807 7.991244c5.363251 3.486113 10.02928 11.906418 8.259407 17.645097-2.091668 6.650432-17.645097 17.591464-62.589143 16.786977h-1.340813c-4.934191 0-123.944738 2.306198-216.192661-141.482571a34.592971 34.592971 0 0 1 1.28718-15.285266 21.453005 21.453005 0 0 0-20.755782-26.816257z m18.98591 41.4043l-0.697223-1.07265z m0 0z"  horiz-adv-x="1024" />

    
    <glyph glyph-name="hongbao1" unicode="&#58903;" d="M512 460.8c98.816 0 179.2 63.232 179.2 140.8V614.4a25.6 25.6 0 0 1-25.6 25.6H358.4a25.6 25.6 0 0 1-25.6-25.6v-12.8c0-77.568 80.384-140.8 179.2-140.8z m0 128a51.2 51.2 0 1 0-51.2-51.2 51.2 51.2 0 0 0 51.2 51.2zM512 409.6a249.6 249.6 0 0 0-179.2 71.68V153.6a25.6 25.6 0 0 1 25.6-25.6h307.2a25.6 25.6 0 0 1 25.6 25.6V481.28a249.6 249.6 0 0 0-179.2-71.68zM512 896a512 512 0 1 1 512-512A512 512 0 0 1 512 896z m230.4-742.4a76.8 76.8 0 0 0-76.8-76.8H358.4a76.8 76.8 0 0 0-76.8 76.8V614.4a76.8 76.8 0 0 0 76.8 76.8h307.2a76.8 76.8 0 0 0 76.8-76.8z"  horiz-adv-x="1024" />

    
    <glyph glyph-name="shouji1" unicode="&#59095;" d="M798.72 877.226667H237.226667c-37.546667 0-68.266667-30.72-68.266667-68.266667V-42.666667c0-37.546667 30.72-68.266667 68.266667-68.266666h561.493333c37.546667 0 68.266667 30.72 68.266667 68.266666V808.96c0 37.546667-30.72 68.266667-68.266667 68.266667z m0-68.266667v-674.133333H237.226667V808.96h561.493333zM237.226667-42.666667v109.226667h561.493333V-42.666667H237.226667zM435.2 706.56h163.84c18.773333 0 34.133333 15.36 34.133333 34.133333s-15.36 34.133333-34.133333 34.133334h-163.84c-18.773333 0-34.133333-15.36-34.133333-34.133334s15.36-34.133333 34.133333-34.133333zM547.84 44.373333h-59.733333c-18.773333 0-34.133333-15.36-34.133334-34.133333s15.36-34.133333 34.133334-34.133333h59.733333c18.773333 0 34.133333 15.36 34.133333 34.133333s-15.36 34.133333-34.133333 34.133333z"  horiz-adv-x="1024" />

    
    <glyph glyph-name="miaosha1" unicode="&#58906;" d="M930.507676 583.151759c-7.064906 9.314133-33.002648-2.448772-30.579459-13.760398 28.395724-57.348126 44.3593-121.981169 44.3593-190.368722 0-236.613976-191.152575-428.415326-426.984744-428.415326-235.83217 0-426.986791 191.802374-426.986791 428.415326 0 236.613976 191.153598 428.41635 426.986791 428.41635 106.9795 0 204.771757-39.47813 279.710516-104.690364 14.198374-9.185196 31.413454 21.333888 14.164604 31.985482C731.437781 801.122119 629.019157 841.036177 517.302773 841.036177c-254.318196 0-460.487789-206.852138-460.487789-462.013539 0-255.160377 206.169593-462.012516 460.487789-462.012516 254.317173 0 460.487789 206.853162 460.487789 462.012516C977.790562 452.307735 960.78219 521.597845 930.507676 583.151759zM716.90274 351.371882l-60.403718 37.030381 0.049119 0-2.345418 1.400906-102.049211 58.589396 47.797609 174.641529c1.075495 2.90005 1.669012 5.945409 1.702782 9.007141 1.026376 12.664438-7.181563 24.573675-19.916609 27.587312-11.868305 2.851954-23.737634-3.03001-29.100782-13.455453L327.257415 448.036455c-8.462742-8.265244-10.229992-20.704554-5.348821-30.66337 1.173732-5.124717 3.823072-9.991562 8.06263-13.759375l142.231375-94.13803-52.243875-221.370807c-1.300622-5.41329-0.786922-10.793834 1.108241-15.598256-0.048095-6.670933 2.408863-13.34289 7.41897-18.481933 10.021238-10.359952 26.53126-10.587126 36.874839-0.49835l197.257619 192.655811c1.475608 1.419326 2.698458 3.03001 3.790326 4.735861l54.718229 53.436026c5.522784 5.396917 8.046257 12.664438 7.755638 19.85214C730.795145 334.581474 726.411301 345.52164 716.90274 351.371882zM474.599182 125.231445l33.837666 143.234215 0.064468 0 5.012154 21.481244 3.130294 13.244652c4.126994 11.022031-1.074472 22.946618-10.390651 31.243585l-139.421376 88.99694L562.369178 605.163075l-63.184041-153.660682c-3.258207-13.890358 3.999081-27.779693 16.559141-33.387411l101.230566-60.587913c0.096191 0.031722 0.160659 0.097214 0.226151 0.161682l62.634526-38.414915L474.599182 125.231445z"  horiz-adv-x="1024" />

    
    <glyph glyph-name="chengzi1" unicode="&#59025;" d="M545.55648 291.935573m-351.668907 0a351.668907 351.668907 0 1 1 703.337814 0 351.668907 351.668907 0 1 1-703.337814 0ZM545.55648-80.213333c-205.202773 0-372.145493 166.94272-372.145493 372.145493S340.353707 664.081067 545.55648 664.081067s372.145493-166.946133 372.145493-372.148907S750.759253-80.213333 545.55648-80.213333z m0 703.3344c-182.616747 0-331.185493-148.568747-331.185493-331.188907 0-182.616747 148.568747-331.185493 331.185493-331.185493s331.185493 148.568747 331.185493 331.185493c0 182.62016-148.568747 331.188907-331.185493 331.188907zM710.560427 151.934293m-11.666774 0a11.666773 11.666773 0 1 1 23.333547 0 11.666773 11.666773 0 1 1-23.333547 0ZM397.223253 505.27232m-11.66336 0a11.66336 11.66336 0 1 1 23.32672 0 11.66336 11.66336 0 1 1-23.32672 0ZM663.88992 268.60544m-11.666773 0a11.666773 11.666773 0 1 1 23.333546 0 11.666773 11.666773 0 1 1-23.333546 0ZM550.5536 131.935573m-11.666773 0a11.666773 11.666773 0 1 1 23.333546 0 11.666773 11.666773 0 1 1-23.333546 0ZM687.223467 535.272107m-11.666774 0a11.666773 11.666773 0 1 1 23.333547 0 11.666773 11.666773 0 1 1-23.333547 0ZM757.224107 178.60608m-11.666774 0a11.666773 11.666773 0 1 1 23.333547 0 11.666773 11.666773 0 1 1-23.333547 0ZM670.55616 121.934507m-11.66336 0a11.66336 11.66336 0 1 1 23.32672 0 11.66336 11.66336 0 1 1-23.32672 0ZM660.555093 68.601173m-11.66336 0a11.66336 11.66336 0 1 1 23.32672 0 11.66336 11.66336 0 1 1-23.32672 0ZM623.889067 11.936427m-11.670187 0a11.670187 11.670187 0 1 1 23.340373 0 11.670187 11.670187 0 1 1-23.340373 0ZM357.2224 98.604373m-11.66336 0a11.66336 11.66336 0 1 1 23.32672 0 11.66336 11.66336 0 1 1-23.32672 0ZM557.223253 71.936m-11.670186 0a11.670187 11.670187 0 1 1 23.340373 0 11.670187 11.670187 0 1 1-23.340373 0ZM747.219627 71.936m-11.670187 0a11.670187 11.670187 0 1 1 23.340373 0 11.670187 11.670187 0 1 1-23.340373 0ZM763.890347 125.26592m-11.666774 0a11.666773 11.666773 0 1 1 23.333547 0 11.666773 11.666773 0 1 1-23.333547 0ZM837.730987 205.267627m-11.666774 0a11.666773 11.666773 0 1 1 23.333547 0 11.666773 11.666773 0 1 1-23.333547 0ZM584.393387 51.094187m-11.666774 0a11.666773 11.666773 0 1 1 23.333547 0 11.666773 11.666773 0 1 1-23.333547 0ZM463.885653 71.936m-11.670186 0a11.670187 11.670187 0 1 1 23.340373 0 11.670187 11.670187 0 1 1-23.340373 0ZM637.221547 171.936427m-11.666774 0a11.666773 11.666773 0 1 1 23.333547 0 11.666773 11.666773 0 1 1-23.333547 0ZM757.224107 311.934293m-11.666774 0a11.666773 11.666773 0 1 1 23.333547 0 11.666773 11.666773 0 1 1-23.333547 0ZM570.555733 581.9392m-11.666773 0a11.666773 11.666773 0 1 1 23.333547 0 11.666773 11.666773 0 1 1-23.333547 0ZM763.890347 245.275307m-11.66336 0a11.66336 11.66336 0 1 1 23.32672 0 11.66336 11.66336 0 1 1-23.32672 0ZM835.577173 401.937067m-11.670186 0a11.670187 11.670187 0 1 1 23.340373 0 11.670187 11.670187 0 1 1-23.340373 0ZM291.109547 782.359893c-70.557013-2.095787-131.293867-41.1136-164.33152-97.95584C163.136853 629.630293 226.085547 594.295467 296.635733 596.394667c70.560427 2.106027 131.290453 41.120427 164.338347 97.95584-36.369067 54.780587-99.321173 90.12224-169.864533 88.009386zM290.679467 575.82592h-0.006827C217.780907 575.829333 150.132053 612.18816 109.714773 673.0752a20.48 20.48 0 0 0-0.641706 21.61664c38.05184 65.46432 105.874773 105.888427 181.428906 108.1344 75.359573 2.239147 145.885867-34.420053 187.53536-97.150293a20.476587 20.476587 0 0 0 0.641707-21.623467c-38.058667-65.45408-105.885013-105.878187-181.43232-108.130987-2.2016-0.064853-4.379307-0.095573-6.567253-0.095573zM151.435947 685.144747C184.753493 642.116267 235.892053 616.789333 290.67264 616.78592h0.01024c1.778347 0 3.55328 0.027307 5.341867 0.078507 56.941227 1.69984 108.48256 30.129493 140.288 76.745386-34.413227 44.438187-87.64416 70.01088-144.5888 68.273494-56.951467-1.6896-108.489387-30.119253-140.288-76.73856zM495.875413 542.65856a20.486827 20.486827 0 0 0-20.012373 16.226987l-31.665493 148.96128a20.48 20.48 0 0 0-0.126294 7.881386l20.77696 115.63008a20.476587 20.476587 0 0 0 23.77728 16.534187 20.473173 20.473173 0 0 0 16.534187-23.77728l-20.066987-111.67744 30.83264-145.032533a20.48 20.48 0 0 0-15.776426-24.28928c-1.430187-0.3072-2.863787-0.457387-4.273494-0.457387zM435.899733 568.2176c-0.01024 23.691947 13.12768 48.541013 33.51552 53.295787l34.94912 6.51264c20.391253 4.754773 43.35616-9.5744 54.633814-36.765014 5.5296-24.866133 14.3872-42.32192-28.873387-52.589226l-34.9184-6.71744c-51.13856-11.485867-58.774187 12.62592-59.306667 36.263253zM806.925653 166.15424a20.401493 20.401493 0 0 0-6.877866 1.19808 20.48 20.48 0 0 0-12.427947 26.13248c2.164053 6.16448 50.128213 148.036267-59.767467 270.29504a20.48 20.48 0 1 0 30.460587 27.385173c126.644907-140.89216 70.35904-304.503467 67.90144-311.3984a20.48 20.48 0 0 0-19.288747-13.612373zM690.08384 528.62976m-25.40544 0a25.40544 25.40544 0 1 1 50.81088 0 25.40544 25.40544 0 1 1-50.81088 0Z"  horiz-adv-x="1024" />

    
    <glyph glyph-name="zhekou1" unicode="&#58929;" d="M449.74592 859.59552c-237.22624 0-429.5424-192.3136-429.5424-429.5488V-85.61024h550.45376c237.22624 0 429.56928 192.31616 429.56928 429.55136V859.59552H449.74592z m-89.49248-677.99552c0-24.1536-5.1392-43.11296-15.41376-56.88704-10.27968-13.77152-27.28192-21.61152-51.008-23.51872a900.94592 900.94592 0 0 0-72.14336-2.85952c-4.24064 24.57984-9.96096 52.6528-17.16096 84.21888l48.3072-1.58848c13.984 0 20.97536 9.1072 20.97536 27.33184v118.22464l-66.7392-13.34784-5.08544 91.52896c22.6688 2.75072 46.60864 6.03904 71.82464 9.85216v112.82176h-68.6464v79.45216h68.6464v107.41888h86.4448v-107.41888H425.088v-79.45216h-64.83328v-98.20288l73.73184 13.66656c-1.27104-4.66304-4.02688-33.47968-8.26368-86.4448l-65.46816-13.03168v-161.76384z m472.26368 230.72896h-92.80128v-314.6304h-86.44352V412.32896h-114.41152v-3.81312c0-134.54336-29.02912-240.26496-87.07968-317.17376-19.06816 24.57984-41.74208 48.94208-68.01152 73.0944 45.76512 55.08608 68.6464 142.80064 68.6464 263.14624v245.3504c119.06816 1.69344 234.11584 13.13408 345.14048 34.3232l27.968-85.17376c-66.10432-9.7472-161.66016-19.49568-286.66368-29.23776v-99.15648h293.65632v-81.35936z"  horiz-adv-x="1024" />

    
    <glyph glyph-name="shouji2" unicode="&#58883;" d="M712.725787-128H311.361362C253.799489-128 206.978723-83.33617 206.978723-28.366979V796.584851C206.978723 851.423319 253.799489 896 311.361362 896h401.364425C770.200511 896 817.021277 851.488681 817.021277 796.672V-28.43234c-0.087149-54.90383-46.820766-99.56766-104.29549-99.56766zM773.446809 787.06383c0 40.981787-26.38434 65.361702-69.392341 65.361702H319.945532C276.850383 852.425532 250.553191 828.045617 250.553191 787.06383v-806.12766c0-41.112511 26.362553-65.361702 69.392341-65.361702h384.108936C747.062468-84.425532 773.446809-81.963574 773.446809-40.851064V787.06383zM294.12766 721.702128h435.74468v-588.255319H294.12766V721.702128z m43.574468-544.680851h348.595744V678.12766H337.702128v-501.106383zM577.361702 765.276596h-130.723404a21.787234 21.787234 0 0 0 0 43.574468h130.723404a21.787234 21.787234 0 0 0 0-43.574468z m-65.361702-675.404256a65.361702 65.361702 0 1 0 0-130.723404 65.361702 65.361702 0 0 0 0 130.723404z"  horiz-adv-x="1024" />

    
    <glyph glyph-name="shouji3" unicode="&#58932;" d="M696 712h-368c-27.2 0-48-20.8-48-48v-560c0-27.2 20.8-48 48-48h368c27.2 0 48 20.8 48 48v560c0 27.2-20.8 48-48 48z m-368-32h368c9.6 0 16-6.4 16-16v-416h-400v416c0 9.6 6.4 16 16 16z m368-592h-368c-9.6 0-16 6.4-16 16v112h400v-112c0-9.6-6.4-16-16-16zM512 152m-32 0a32 32 0 1 1 64 0 32 32 0 1 1-64 0Z"  horiz-adv-x="1024" />

    
    <glyph glyph-name="diqiu2" unicode="&#58884;" d="M511.67 831.676c-247.203 0-447.6-200.397-447.6-447.6 0-247.202 200.397-447.6 447.6-447.6s447.6 200.398 447.6 447.6c0 247.203-200.397 447.6-447.6 447.6z m-341.035-447.6c0 65.443 18.448 126.571 50.406 178.495 1.129-2.6 1.74-5.11 2.067-6.968 0.327-1.853-0.048-3.739-0.984-5.371-41.39-72.132-15.03-168.484 7.142-219.938 20.64-47.903 167.044-96.58 192.709-98.46 9.616-0.704 17.973-10.36 19-12.285 47.587-89.227 170.2-134.193 209.538-147.041-42.414-18.93-89.396-29.467-138.843-29.467-188.35 0-341.035 152.686-341.035 341.035z m551.168-268.617c-15.74 26.002-22.22 71.063-24.165 90.072-2.693 26.323 8.431 161.415-19.318 174.01s-120.1-24.965-155.869-48.47c-35.77-23.504-83.36-50.01-114.576-35.839-31.217 14.171-42.274 58.931-28.89 88.415 12.805 28.21 69.637 26.859 74.524 26.69 0.252-0.008 0.47-0.005 0.722 0.01l25.641 1.498c6.535 0.382 9.97 7.93 5.94 13.088-7.12 9.117-17.943 21.516-30.257 30.63-21.918 16.225-19.728 48.698-0.046 92.055 19.682 43.358 1.848 87.011-21.645 99.768-23.493 12.755-51.697-7.907-84.626-38.977-32.929-31.069-70.604-26.517-95.83-12.973-2.387 1.28-4.3 2.778-5.809 4.439 62.54 76.44 157.603 125.238 264.071 125.238 86.735 0 165.892-32.397 226.073-85.727l-0.129-0.202s-1.71-45.24-11.317-61.796c-9.607-16.556-43.631-63.86-8.945-79.606 32.745-14.864 89.207 6.098 119.04-9.267 10.578-32.916 16.314-68.005 16.314-104.438 0-109.08-51.214-206.191-130.903-268.618z"  horiz-adv-x="1024" />

    
    <glyph glyph-name="qintao18" unicode="&#58634;" d="M762.277 256.322c-3.522 13.57 4.806-23.365 4.806-23.365s19.605-9.001 33.882 0c14.372 9.004 32.312 14.411 48.394 46.825 16.083 32.416 32.167 79.197 33.883 106.202 1.71 27.004 5.231 98.584-21.511 134.782v0c-26.839 36.149-59.005 75.793-91.222 99.159-32.261 23.415-87.653 57.603-87.653 57.603l-37.543 14.361c0 0 23.176 25.188 21.46 52.238-1.855 26.958 10.706 26.958-12.561 53.964-23.271 26.954-32.217 30.594-42.922 32.415-10.71 1.772-21.461 0-21.461 0l1.806-18.004c0 0 21.365-12.593 23.221-30.594 1.811-18.004 8.945-9.004 7.138-30.599-1.805-21.593-1.475-30.594-15.085-36.004-13.56-5.411-38.638-5.411-77.897 0-39.399 5.41-143.137 0-177.113-16.183-33.977-16.188-85.797-41.37-116.203-88.151-30.411-46.826-48.299-72.010-55.488-109.785-7.139-37.828-1.761-48.603 23.271-73.836 6.232-6.321 12.943-10.485 19.795-12.927 11.755-4.211 42.329 8.995 34.405 0.818 137.859 142.257 449.194 54.553 504.597-158.919zM721.645 128.493c-27.713-63.088-59.964-106.228-92.318-130.816-32.3-24.692-91.22-41.576-155.719-44.646-64.494-3.075-79.916 0-79.916 0l-33.859-15.422c0 0-41.576 29.279-58.508 47.722-16.933 18.492-46.21 52.356-61.577 77.049-15.422 24.643-36.94 77.938-35.425 125.923 1.511 48.028 6.146 98.826 18.438 137.375 12.297 38.501 29.279 63.094 46.21 73.875 16.933 10.787 46.161 23.601 46.161 23.601s25.265 30.948 135.503 26.731c0 0 47.775 2.445 93.931-13.131 46.21-15.577 75.435-20.211 121.646-71.009 46.21-50.796 52.356-46.156 63.142-97.001 10.787-50.852 20.009-77.055-7.711-140.248v0z"  horiz-adv-x="1024" />

    
    <glyph glyph-name="miaosha2" unicode="&#58894;" d="M370.10944 833.21856a23.0144 23.0144 0 0 0 28.34432-16.04096c3.35872-12.25728-3.7888-24.94464-16.06656-28.29824a496.5376 496.5376 0 0 1-120.89856-51.78368 502.87616 502.87616 0 0 1-103.552-82.02752 23.07584 23.07584 0 0 0-32.5632-0.67072c-9.1648 8.84736-9.46688 23.424-0.60928 32.56832a545.6896 545.6896 0 0 0 113.08032 89.59488 541.31712 541.31712 0 0 0 132.26496 56.65792z m-47.77472-849.71008a23.07584 23.07584 0 0 0-9.40544 31.22688 23.11168 23.11168 0 0 0 31.27808 9.40032 361.1904 361.1904 0 0 1 83.27168-32.38912c28.40576-7.19872 58.21952-10.9824 89.06752-10.9824 100.12672 0 190.848 40.56064 256.46592 106.06592 65.664 65.5616 106.22976 156.06272 106.22976 256.09728 0 99.95776-40.56576 190.53056-106.22976 256.09216-65.6128 65.50016-156.3392 106.0608-256.46592 106.0608-100.18816 0-190.90944-40.55552-256.52224-106.12224-65.6128-65.50016-106.24-156.01152-106.24-256.03072 0-43.97568 7.81824-86.12352 22.17472-124.97408a362.17344 362.17344 0 0 1 64.14848-109.71648 22.8352 22.8352 0 0 0-2.63168-32.32256c-9.6512-8.23808-24.192-7.08096-32.37376 2.55488-31.03744 36.41344-55.7824 78.19264-72.51968 123.62752a406.36416 406.36416 0 0 0-25.04704 140.8256c0 112.70656 45.81888 214.80448 119.79776 288.72192 73.97888 73.856 176.24576 119.54176 289.2032 119.54176 112.896 0 215.15776-45.68064 289.2032-119.54176 73.97888-73.92256 119.74144-176.01536 119.74144-288.72192 0-112.77312-45.76256-214.87104-119.79776-288.72704-73.984-73.856-176.25088-119.59808-289.14688-119.59808a412.032 412.032 0 0 0-100.2496 12.38016 409.48736 409.48736 0 0 0-93.952 36.5312zM480.8704 607.80032a23.15776 23.15776 0 0 0 23.14752 23.1168 23.14752 23.14752 0 0 0 23.0912-23.1168v-241.8176h209.23392c12.7744 0 23.09632-10.31168 23.09632-23.05536s-10.32192-23.12192-23.09632-23.12192H504.01792a23.15776 23.15776 0 0 0-23.14752 23.12192V607.80032z m427.44832 79.16544a23.06048 23.06048 0 0 0-0.60928-32.56832 23.14752 23.14752 0 0 0-32.61952 0.67072 501.1456 501.1456 0 0 1-103.49056 82.02752 497.64864 497.64864 0 0 1-120.89856 51.78368 22.9376 22.9376 0 0 0-16.06656 28.29824 22.98368 22.98368 0 0 0 28.34432 16.04096 542.4128 542.4128 0 0 0 132.25984-56.65792 547.31264 547.31264 0 0 0 113.08032-89.59488z"  horiz-adv-x="1024" />

    
    <glyph glyph-name="xiaolian1" unicode="&#58926;" d="M900.9 552.5c-8.2-3.6-17.6 0.1-21.5 8.2-5.3 11-11.2 21.8-17.4 32.2-41 68.3-102.3 124.4-173.7 159.1-8 3.9-11.7 13.2-8.1 21.4 3.7 8.5 13.8 12.4 22.1 8.4 78.2-37.8 142.9-97 187.9-172 6.9-11.5 13.3-23.3 19.1-35.4 4-8.2 0-18.2-8.4-21.9z m35.9-154.6c-9.1 0-16.5-7.4-16.5-16.5 0-227.1-184.7-411.8-411.8-411.8S96.7 154.4 96.7 381.5s184.7 411.8 411.8 411.8c9.1 0 16.5 7.4 16.5 16.5s-7.4 16.5-16.5 16.5c-245.2 0-444.8-199.5-444.8-444.8s199.5-444.8 444.8-444.8 444.8 199.5 444.8 444.8c0 9.1-7.4 16.4-16.5 16.4z m-346 395.4a16.5 16.5 0 1 1 33 0 16.5 16.5 0 1 1-33 0z m313-313a16.5 16.5 0 1 1 33 0 16.5 16.5 0 1 1-33 0zM363.1 264.4c8.3 3.6 18.1 1.3 23.7-5.1 20.4-23.5 61.6-45.1 126.1-45.1s105.7 21.6 126.1 45.1c5.6 6.4 15.4 8.7 23.7 5.1 10.4-4.5 13.9-16.2 7-24.3-20.4-23.7-65.9-58.8-156.8-58.8s-136.4 35.1-156.8 58.8c-7 8.1-3.4 19.8 7 24.3z m89.7 182.2c-4.9-3.6-10.7-1.3-14 5.1-12 23.5-36.3 45.1-74.3 45.1s-62.3-21.6-74.3-45.1c-3.3-6.4-9.1-8.7-14-5.1-6.1 4.5-8.2 16.2-4.1 24.3 12 23.7 38.8 58.8 92.3 58.8s80.3-35.1 92.3-58.8c4.4-8.1 2.3-19.7-3.9-24.3z m313 0c-4.9-3.6-10.7-1.3-14 5.1-12 23.5-36.3 45.1-74.3 45.1s-62.3-21.6-74.3-45.1c-3.3-6.4-9.1-8.7-14-5.1-6.1 4.5-8.2 16.2-4.1 24.3 12 23.7 38.8 58.8 92.3 58.8s80.3-35.1 92.3-58.8c4.3-8.1 2.3-19.7-3.9-24.3z"  horiz-adv-x="1024" />

    
    <glyph glyph-name="shouyedianji" unicode="&#58892;" d="M1016.32 419.84l-450.56 453.12c-15.36 15.36-35.84 23.04-56.32 23.04-20.48 0-38.4-7.68-53.76-23.04l-448-450.56c-5.12-5.12-7.68-12.8-7.68-20.48s2.56-12.8 7.68-15.36c5.12-5.12 10.24-7.68 17.92-7.68s12.8 2.56 17.92 7.68l448 450.56c7.68 5.12 12.8 7.68 20.48 7.68s12.8-2.56 17.92-7.68l450.56-453.12c5.12-5.12 10.24-7.68 17.92-7.68 5.12 0 10.24 2.56 15.36 5.12 5.12 2.56 10.24 10.24 10.24 17.92s-2.56 15.36-7.68 20.48zM99.84 483.84v-532.48c0-40.96 33.28-76.8 76.8-76.8H414.72v99.84c0 53.76 43.52 97.28 97.28 97.28s97.28-43.52 97.28-97.28v-99.84h238.08c40.96 0 76.8 33.28 76.8 76.8v532.48l-412.16 396.8-412.16-396.8z"  horiz-adv-x="1024" />

    
    <glyph glyph-name="xiaolian2" unicode="&#58908;" d="M512-72.448C260.32-72.448 55.584 132.32 55.584 384 55.584 635.648 260.32 840.416 512 840.416S968.448 635.68 968.448 384C968.416 132.32 763.68-72.448 512-72.448z m0 864.864c-225.184 0-408.416-183.232-408.416-408.416 0-225.216 183.232-408.448 408.416-408.448 225.216 0 408.448 183.232 408.448 408.448C920.416 609.184 737.216 792.416 512 792.416z m0-677.44c-89.472 0-174.176 39.2-232.48 107.52-8.64 10.048-7.392 25.216 2.688 33.824 9.984 8.64 25.184 7.392 33.824-2.688 49.152-57.6 120.608-90.656 195.968-90.656 75.392 0 146.848 33.056 196 90.656 8.672 10.08 23.808 11.328 33.824 2.688 10.08-8.608 11.328-23.744 2.688-33.824-58.304-68.32-143.04-107.52-232.512-107.52z m-143.936 276h-5.824c-21.312 0-38.624 17.312-38.624 38.624v69.152c0 21.28 17.312 38.592 38.624 38.592h5.824c21.28 0 38.592-17.312 38.592-38.592V429.6c0-21.312-17.312-38.624-38.592-38.624z m293.696 0h-5.824c-21.28 0-38.592 17.312-38.592 38.624v69.152c0 21.28 17.312 38.592 38.592 38.592h5.824c21.28 0 38.592-17.312 38.592-38.592V429.6c0-21.312-17.312-38.624-38.592-38.624z"  horiz-adv-x="1024" />

    
    <glyph glyph-name="kuai" unicode="&#59011;" d="M548.672224 541.215648c0 128.919185-121.290437 233.799884-270.384103 233.799883-149.092643 0-270.38308-104.889909-270.383081-233.799883 0-128.928395 121.290437-233.810117 270.383081-233.810117 21.594831 0 42.579771 2.260483 62.7256 6.420223l8.40339 119.871112c-20.976754-10.488889-45.227064-16.585747-71.130014-16.585747-78.877465 0-143.060253 55.67809-143.060253 124.112715 0 68.418252 64.174602 124.095319 143.060253 124.09532 78.878488 0 143.061276-55.67809 143.061277-124.09532 0-15.644305-3.496637-30.560016-9.612939-44.3593l-57.44841-179.985234c0.00921 0 0.027629 0.008186 0.036839 0.008186l-90.75805-281.111422 109.851921-42.791595 160.569022 472.202598c9.509585 23.836895 14.685467 49.415456 14.685467 76.028581zM1016.095983 403.294438c0 96.486518-90.777493 174.98229-202.362894 174.98229-111.584378 0-202.361871-78.501912-202.361871-174.98229 0-96.493681 90.777493-174.989453 202.361871-174.989453 16.162098 0 31.867802 1.692548 46.946218 4.805446l6.28924 89.714278c-15.699564-7.849782-33.848922-12.412704-53.235458-12.412704-59.033511 0-107.069551 41.671075-107.069551 92.889597 0 51.205219 48.0299 92.876294 107.069551 92.876293 59.034535 0 107.070574-41.671075 107.070574-92.876293 0-11.70867-2.616594-22.871917-7.194866-33.199123L870.612541 235.396497c0.00614 0 0.020466 0.00614 0.020466 0.00614l-67.918879-210.390731 82.21549-32.026414 120.17401 353.409029c7.119141 17.839297 10.992355 36.983309 10.992355 56.899917zM605.313246 50.528046m-42.309618 0a42.309618 42.309618 0 1 1 84.619236 0 42.309618 42.309618 0 1 1-84.619236 0Z"  horiz-adv-x="1024" />

    
    <glyph glyph-name="sousuo2" unicode="&#58630;" d="M1015.111051-41.59611800000005L723.051275 252.387473c118.749568 156.845211 106.645902 381.213281-36.368302 524.226462-156.304905 156.304905-409.726685 156.304905-566.031591 0-156.304905-156.26909-156.304905-409.691893 0-565.996798 142.963039-142.963039 367.155101-155.137313 523.988032-36.58115l292.124244-294.01429c9.598612-9.597589 25.205055-9.597589 34.801621 0l43.546795 43.546795C1024.743432-66.799126 1024.743432-51.19473000000005 1015.111051-41.59611800000005zM194.804243 282.60263499999996c-114.784256 114.783233-114.784256 300.878628 0 415.627069 114.78528 114.784256 300.841789 114.784256 415.628092 0 114.78528-114.748441 114.78528-300.843836 0-415.627069C495.646032 167.81735600000002 309.589522 167.81735600000002 194.804243 282.60263499999996z"  horiz-adv-x="1024" />

    
    <glyph glyph-name="if_find_in_magnifier" unicode="&#58933;" d="M416 832C221.92 832 64 674.08 64 480s157.92-352 352-352 352 157.92 352 352S610.08 832 416 832z m0-640c-158.784 0-288 129.184-288 288 0 158.784 129.216 288 288 288 158.816 0 288-129.216 288-288 0-158.816-129.184-288-288-288zM950.624-9.375999999999976l-192.032 192a31.968 31.968 0 1 1-45.248-45.248l192.032-192a31.904 31.904 0 0 1 45.248 0 31.968 31.968 0 0 1 0 45.248z"  horiz-adv-x="1024" />

    
    <glyph glyph-name="qunzi" unicode="&#58986;" d="M356.214418 690.969112a109.487849 109.487849 0 0 0-81.021008-107.298092 21.89757 21.89757 0 0 1 4.379514-43.79514h4.379514a153.282989 153.282989 0 0 1 116.05712 149.341426 21.89757 21.89757 0 0 1-21.021667 22.773473 22.335521 22.335521 0 0 1-22.773473-21.021667zM647.890049 711.990779a21.89757 21.89757 0 0 1-21.021667-22.773473 153.282989 153.282989 0 0 1 116.05712-148.027572H745.55321a21.89757 21.89757 0 0 1 4.379514 43.79514 109.487849 109.487849 0 0 0-81.45896 107.298092 20.583716 20.583716 0 0 1-20.583715 19.707813zM251.981986 772.428072a2097.787191 2097.787191 0 0 1 262.770838-15.328299 2094.721531 2094.721531 0 0 1 262.770838 15.328299 21.89757 21.89757 0 0 1 19.269862 21.89757V873.594844A21.89757 21.89757 0 0 1 789.34835 890.236998a22.335521 22.335521 0 0 1-19.707813 5.255416 2249.756325 2249.756325 0 0 0-512.403134 0 22.335521 22.335521 0 0 1-17.080105-5.255416 21.89757 21.89757 0 0 1-7.445173-16.642154v-79.269202a21.89757 21.89757 0 0 1 19.269861-21.89757z m24.525278 76.641494a2347.419487 2347.419487 0 0 1 474.301363 0v-35.474063a2286.982194 2286.982194 0 0 0-474.301363 0zM1024.966201-40.409721L798.545329 735.202203a21.89757 21.89757 0 0 1-43.795139-12.262639l218.975698-755.466159a1043.200227 1043.200227 0 0 0-196.202226-38.101772l-43.79514 270.653963a22.335521 22.335521 0 0 1-24.963229 18.393959 21.89757 21.89757 0 0 1-18.393959-24.96323l43.79514-268.026255q-91.531842-7.883125-201.895594-8.759028v100.29087a21.89757 21.89757 0 0 1-43.79514 0v-100.29087q-109.049898 0-200.143788 8.321077l76.641494 428.316466a21.89757 21.89757 0 0 1-43.795139 7.883125l-73.137884-431.820077a1046.265887 1046.265887 0 0 0-197.954031 38.539723l218.975698 755.466159a21.89757 21.89757 0 0 1-43.795139 12.262639L1.035836-40.409721a21.89757 21.89757 0 0 1 14.452396-27.590938 1069.915262 1069.915262 0 0 1 245.690733-49.050556h4.817466c73.575835-7.007222 155.472746-10.948785 247.442539-10.948785 218.975698 0 385.397229 20.145764 497.950738 60.437293a21.89757 21.89757 0 0 1 13.576493 27.152986z"  horiz-adv-x="1026" />

    
    <glyph glyph-name="qunzi1" unicode="&#58889;" d="M308.4 686.8c68-8.3 136.4-12.3 204.9-12 68.5-0.3 136.9 3.7 204.9 12 8.6 1 15.1 8.4 15 17.1v61.8c0 5-2.1 9.7-5.8 13-4.2 3.8-9.9 5.3-15.4 4.1-132.7-15.2-266.8-15.2-399.5 0-4.8 0.5-9.6-0.9-13.3-4.1-3.7-3.3-5.8-8-5.8-13v-61.8c-0.1-8.7 6.4-16 15-17.1z m19.1 59.8c123-12.5 246.9-12.5 369.8 0v-27.7c-122.9-12.8-246.9-12.8-369.8 0v27.7z m0 0M911.1 53.1L734.6 657.8c-2.6 9.4-12.4 14.9-21.9 12.3-9.4-2.6-14.9-12.4-12.3-21.9l170.7-589.1c-49.9-14.8-101.2-24.7-153-29.7l-34.2 211c-1.6 9.2-10.2 15.6-19.5 14.3-4.5-0.7-8.5-3.1-11.2-6.8-2.7-3.7-3.8-8.2-3.1-12.7l34.1-209c-47.6-4.1-100.1-6.4-157.4-6.8v78.2c0 9.4-7.6 17.1-17.1 17.1-9.4 0-17.1-7.6-17.1-17.1v-78.2c-56.7 0-108.7 2.2-156.1 6.5l59.8 334c1.7 9.4-4.6 18.4-14 20.1-9.4 1.7-18.4-4.6-20.1-14l-57-336.7c-52.3 5-104 15.1-154.4 30.1l170.7 589.1c2.6 9.4-2.9 19.2-12.3 21.9-9.4 2.6-19.2-2.9-21.9-12.3l-174.6-605c-1.4-4.3-1-9.1 1.1-13.1s5.8-7.1 10.1-8.4c62.1-20.2 126.4-33 191.6-38.2h3.8c57.4-5.5 121.2-8.5 192.9-8.5 170.7 0 300.5 15.7 388.3 47.1 8.7 2.9 13.3 12.3 10.6 21.1z m0 0"  horiz-adv-x="1024" />

    
    <glyph glyph-name="miaosha3" unicode="&#58629;" d="M507.270279 389.237281c-11.144828 0-20.179598 9.03477-20.179598 20.179598l0 341.78427c0 11.144828 9.03477 20.179598 20.179598 20.179598 11.144828 0 20.179598-9.03477 20.179598-20.179598l0-321.604672 321.604672 0c11.144828 0 20.179598-9.03477 20.179598-20.179598 0-11.144828-9.03477-20.179598-20.179598-20.179598L507.270279 389.237281zM1006.632447 301.095825c0.031722-0.465604 0.070608-0.929162 0.070608-1.402953 0-11.144828-9.03477-20.178575-20.178575-20.178575-11.144828 0-20.179598 9.03477-20.179598 20.178575 0 1.489934 0.172939 2.938935 0.478907 4.336772l-0.743944 0.186242c5.030573 27.378557 7.679913 55.579853 7.679913 84.391039 0 256.876462-208.983685 465.860147-465.860147 465.860147s-465.860147-208.983685-465.860147-465.860147 208.983685-465.860147 465.860147-465.860147c146.645918 0 277.643438 68.136843 363.092575 174.386726 3.554966 5.750981 9.899464 9.595542 17.157775 9.595542 11.144828 0 20.179598-9.03477 20.179598-20.178575 0-4.596691-1.554402-8.819876-4.142343-12.213159l0.285502-0.228197c-92.835362-116.828822-236.097206-191.872982-396.572084-191.872982-279.215236 0-506.369769 227.154533-506.369769 506.369769S228.685399 894.976694 507.900635 894.976694s506.369769-227.154533 506.369769-506.369769C1014.270405 358.76322300000004 1011.613902 329.534528 1006.632447 301.095825z"  horiz-adv-x="1024" />

    
    <glyph glyph-name="jianguoleipx" unicode="&#58925;" d="M773.304656 513.729049s-1.074361 1.51082-1.678689 2.081574c-7.184787 7.184787-19.086689 6.932984-26.305049-0.302164-6.060066-6.009705-6.63082-16.87082-2.85377-22.242623 0.335738-0.553967 0.503607-0.940066 0.671475-1.124721a334.898361 334.898361 0 0 0 37.35082-269.815607l-0.436459-1.477246-0.335738-1.56118c-1.342951-6.966557-4.767475-13.328787-9.786754-18.381639a36.091803 36.091803 0 0 0-50.746754 0 40.42282 40.42282 0 0 0-4.36459 5.371803l-5.539673 8.124852c32.314754 58.619803 21.99082 207.452328-60.348852 289.640918-61.44 61.44-131.659541 77.790426-193.519213 77.790427-2.199082 0-7.70518-0.050361-8.259148-0.083935h-0.134295a18.415213 18.415213 0 0 1-11.851541-31.357901c3.592393-3.60918 8.309508-5.422164 13.060197-5.422164 1.997639 0.050361 5.237508 0 7.218361 0 67.584 0 122.359607-21.890098 167.432393-66.979673 34.413115-34.295607 57.981902-87.946492 64.679869-147.170622 6.379016-55.497443-4.750689-94.443016-14.705312-104.39764-64.24341-64.109115-162.967082-107.284984-245.558557-107.284983-50.024918 0-90.414164 15.007475-120.093377 44.602754-37.166164 37.115803-43.998426 88.81941-43.142295 125.633049 1.812984 80.291672 41.581115 173.358164 98.505443 234.177049 0 0 0 0.050361 0.100721 0.050361 13.194492 14.487082 22.712656 25.096393 22.712656 25.096393s-18.70059 11.381508-30.166033 18.465574l0.167869 0.050361c-0.033574 0-0.067148-0.050361-0.167869-0.050361l-6.211148 4.331016a35.336393 35.336393 0 0 0-4.985705 4.062427 35.823213 35.823213 0 0 0 0 50.578885c3.676328 3.676328 8.124852 6.496525 13.194492 8.259147l11.633312 4.196722a337.248525 337.248525 0 0 0 89.088 11.952262c89.641967 0 173.996066-34.883148 237.416918-98.169705 5.203934-5.203934 10.072131-10.558951 14.889967-16.014689l17.424787 17.35764 7.184787 7.134426 1.594754 1.678689 48.598033 48.514098a21.319344 21.319344 0 0 1 0 30.18282 21.520787 21.520787 0 0 1-30.283541 0l-48.547673-48.396591a371.745574 371.745574 0 0 1-248.278032 94.644459c-38.15659 0-76.279607-5.841836-112.975738-17.424786-0.117508-0.26859-0.167869-0.570754-0.285377-0.872918a73.526557 73.526557 0 0 1-26.791869-16.904394 72.620066 72.620066 0 0 1 0-102.802885c3.122361-3.155934 6.496525-5.87541 10.004984-8.259148v-0.906491c-96.826754-110.457705-145.408-304.312656-46.868984-402.700591 39.029508-38.979148 90.900984-55.463869 146.230557-55.463868 89.30623 0 187.593443 42.924066 256 103.491147 0.386098 0 0.721836 0 1.024-0.033574 2.551607-3.810623 5.455738-7.403016 8.745968-10.743606a72.905443 72.905443 0 0 1 102.970754 0 71.797508 71.797508 0 0 1 19.942819 37.300459c29.074885 100.553443 14.923541 210.72577-42.621901 301.576393z"  horiz-adv-x="1024" />

    


  </font>
</defs>
</svg>
